<svg width="24" height="37" viewBox="0 0 24 37" fill="none" xmlns="http://www.w3.org/2000/svg">
<path fill-rule="evenodd" clip-rule="evenodd" d="M6.81281 5.17669C6.81281 3.59588 8.61066 2.64908 9.96101 3.51876L20.7649 10.246C21.9883 11.0339 21.9819 12.7903 20.7528 13.5696L9.94886 20.2032C8.5977 21.0599 6.81281 20.1119 6.81281 18.5375V5.17669ZM10.372 1.58337C7.95522 0.0413342 4.75261 1.7366 4.75261 4.55797V19.0944C4.75261 21.9044 7.93215 23.6018 10.3503 22.0828L21.8307 14.8712C24.047 13.479 24.0585 10.3159 21.8524 8.90829L10.372 1.58337Z" fill="#87A8FF"/>
<path fill-rule="evenodd" clip-rule="evenodd" d="M4.75261 4.55797C4.75261 1.7366 7.95522 0.0413342 10.372 1.58337L21.8524 8.90829C24.0585 10.3159 24.047 13.479 21.8307 14.8712L10.3503 22.0828C7.93215 23.6018 4.75261 21.9044 4.75261 19.0944V4.55797ZM6.81281 5.17669C6.81281 3.59588 8.61066 2.64908 9.96101 3.51876L20.7649 10.246C21.9883 11.0339 21.9819 12.7903 20.7528 13.5696L9.94886 20.2032C8.5977 21.0599 6.81281 20.1119 6.81281 18.5375V5.17669Z" fill="#87A8FF"/>
<path fill-rule="evenodd" clip-rule="evenodd" d="M6.81281 5.17669C6.81281 3.59588 8.61066 2.64908 9.96101 3.51876L20.7649 10.246C21.9883 11.0339 21.9819 12.7903 20.7528 13.5696L9.94886 20.2032C8.5977 21.0599 6.81281 20.1119 6.81281 18.5375V5.17669ZM10.372 1.58337C7.95522 0.0413342 4.75261 1.7366 4.75261 4.55797V19.0944C4.75261 21.9044 7.93215 23.6018 10.3503 22.0828L21.8307 14.8712C24.047 13.479 24.0585 10.3159 21.8524 8.90829L10.372 1.58337Z" stroke="#87A8FF" stroke-width="0.598958"/>
<path fill-rule="evenodd" clip-rule="evenodd" d="M4.75261 4.55797C4.75261 1.7366 7.95522 0.0413342 10.372 1.58337L21.8524 8.90829C24.0585 10.3159 24.047 13.479 21.8307 14.8712L10.3503 22.0828C7.93215 23.6018 4.75261 21.9044 4.75261 19.0944V4.55797ZM6.81281 5.17669C6.81281 3.59588 8.61066 2.64908 9.96101 3.51876L20.7649 10.246C21.9883 11.0339 21.9819 12.7903 20.7528 13.5696L9.94886 20.2032C8.5977 21.0599 6.81281 20.1119 6.81281 18.5375V5.17669Z" stroke="#87A8FF" stroke-width="0.598958"/>
<path fill-rule="evenodd" clip-rule="evenodd" d="M0.5 18.235V36.6829C4.4082 36.3634 12.2246 34.1223 12.2246 27.7135V9.47522C7.67252 9.47522 0.5 13.9225 0.5 18.235ZM2.6263 18.4746V33.9726C4.88737 33.5134 9.88867 31.6187 9.88867 27.7135V12.0058C7.6276 12.8543 2.6263 15.336 2.6263 18.4746Z" fill="#2A66FF"/>
<path d="M12.2246 27.7135C12.2246 34.1223 4.4082 36.3634 0.5 36.6829V18.235C0.5 13.9225 7.67252 9.47522 12.2246 9.47522M12.2246 27.7135C12.2246 21.3046 12.2246 12.8843 12.2246 9.47522M12.2246 27.7135V9.47522M9.88867 27.7135C9.88867 31.6187 4.88737 33.5134 2.6263 33.9726V18.4746C2.6263 15.336 7.6276 12.8543 9.88867 12.0058M9.88867 27.7135C9.88867 23.8083 9.88867 15.6145 9.88867 12.0058M9.88867 27.7135V12.0058" stroke="#2A66FF" stroke-width="0.246941" stroke-linecap="round"/>
<path fill-rule="evenodd" clip-rule="evenodd" d="M9.96101 3.51876C8.61066 2.64908 6.81281 3.59588 6.81281 5.1767L4.75261 4.55797C4.75261 1.7366 7.95522 0.0413339 10.372 1.58337L21.8524 8.90829C24.0585 10.3159 24.047 13.479 21.8307 14.8712L10.3503 22.0828C7.93215 23.6018 4.75261 21.9044 4.75261 19.0944L6.81281 18.5375C6.81281 20.1119 8.5977 21.0599 9.94886 20.2032L20.7528 13.5696C21.9819 12.7903 21.9883 11.0339 20.7649 10.246L9.96101 3.51876Z" fill="#87A8FF" stroke="#87A8FF" stroke-width="0.598958"/>
</svg>
