<svg width="20" height="21" viewBox="0 0 20 21" fill="none" xmlns="http://www.w3.org/2000/svg">
<path d="M9.69699 7.46967C9.4041 7.17678 8.92923 7.17678 8.63633 7.46967C8.34344 7.76256 8.34344 8.23744 8.63633 8.53033L9.69699 7.46967ZM11.6667 10.5L12.197 11.0303C12.3376 10.8897 12.4167 10.6989 12.4167 10.5C12.4167 10.3011 12.3376 10.1103 12.197 9.96967L11.6667 10.5ZM8.63633 12.4697C8.34344 12.7626 8.34344 13.2374 8.63633 13.5303C8.92923 13.8232 9.4041 13.8232 9.69699 13.5303L8.63633 12.4697ZM8.63633 8.53033L11.1363 11.0303L12.197 9.96967L9.69699 7.46967L8.63633 8.53033ZM11.1363 9.96967L8.63633 12.4697L9.69699 13.5303L12.197 11.0303L11.1363 9.96967Z" fill="#52575C"/>
</svg>
