<svg width="25" height="25" viewBox="0 0 25 25" fill="none" xmlns="http://www.w3.org/2000/svg">
<path d="M11.5 4.68294H7.3C5.61984 4.68294 4.77976 4.68294 4.13803 5.00992C3.57354 5.29754 3.1146 5.75648 2.82698 6.32097C2.5 6.9627 2.5 7.80278 2.5 9.48294V17.8829C2.5 19.5631 2.5 20.4032 2.82698 21.0449C3.1146 21.6094 3.57354 22.0683 4.13803 22.356C4.77976 22.6829 5.61984 22.6829 7.3 22.6829H15.7C17.3802 22.6829 18.2202 22.6829 18.862 22.356C19.4265 22.0683 19.8854 21.6094 20.173 21.0449C20.5 20.4032 20.5 19.5631 20.5 17.8829V13.6829M8.49997 16.6829H10.1745C10.6637 16.6829 10.9083 16.6829 11.1385 16.6277C11.3425 16.5787 11.5376 16.4979 11.7166 16.3882C11.9184 16.2645 12.0914 16.0916 12.4373 15.7457L22 6.18294C22.8284 5.35451 22.8284 4.01136 22 3.18294C21.1716 2.35451 19.8284 2.35451 19 3.18293L9.43723 12.7457C9.09133 13.0916 8.91838 13.2645 8.79469 13.4664C8.68504 13.6453 8.60423 13.8404 8.55523 14.0445C8.49997 14.2746 8.49997 14.5192 8.49997 15.0084V16.6829Z" stroke="#90A0B7" stroke-width="2" stroke-linecap="round" stroke-linejoin="round"/>
</svg>
