<svg width="1061" height="748" viewBox="0 0 1061 748" fill="none" xmlns="http://www.w3.org/2000/svg">
<g clip-path="url(#clip0_354_6179)">
<rect width="1061" height="747.841" fill="white"/>
<path d="M955.202 508.351C955.961 511.051 955.727 513.933 954.544 516.475C954.006 517.597 953.155 518.54 952.095 519.191C951.034 519.841 949.808 520.172 948.563 520.144C941.161 520.144 939.973 508.415 944.555 504.067C947.63 501.098 953.42 501.925 955.202 508.351Z" fill="#109CF1"/>
<path d="M1124.18 605.554C1122.76 604.875 1119.28 606.318 1114.93 611.281C1110.44 616.599 1106.82 622.59 1104.2 629.033C1101.82 635.057 1102.27 638.45 1103.58 639.426C1094.87 634.166 1045.7 602.182 1037.2 596.625L1030.83 600.867C1032.96 594.271 1036.03 575.882 1037.39 569.053C1038.83 565.786 1040.21 562.69 1041.48 560.017L1054.59 556.051C1063.54 561.354 1110.77 594.949 1124.18 605.554Z" fill="#109CF1"/>
<path d="M979.317 570.537C1006.27 536.602 1012.62 528.224 1018.85 524.555C1025.45 520.631 1029.73 519.274 1111.52 496.453C1110.01 497.004 1108.89 500.355 1109.18 507.057C1109.54 514.243 1110.75 521.361 1112.77 528.267C1114.72 534.63 1117.01 537.175 1118.64 537.048C1102.93 541.289 1077.03 549.37 1041.44 560.081C1029.5 585.532 1009.63 639.277 982.053 642.289C977.663 641.716 972.848 640.974 968.84 640.168C986.868 639.277 985.362 635.502 982.18 635.481C975.372 635.481 960.738 635.035 959.55 635.269C957.153 636.044 954.871 637.135 952.763 638.514C955.562 626.233 952.275 625.936 951.13 629.139C950.227 631.602 949.12 633.986 947.821 636.265C942.632 631.949 938.177 626.821 934.629 621.079C943.664 611.896 945.806 594.08 942.837 585.66C949.221 582.881 978.257 570.898 979.317 570.537Z" fill="#109CF1"/>
<path d="M1137.48 715.292C1130.75 677.009 1133.85 694.676 1127.02 655.905C1126.42 652.538 1124.51 649.546 1121.71 647.585C1118.9 645.625 1115.44 644.857 1112.07 645.449L908.965 681.208C908.866 681.226 908.772 681.263 908.687 681.318C908.603 681.372 908.53 681.443 908.472 681.526C908.415 681.609 908.375 681.702 908.354 681.8C908.333 681.899 908.332 682 908.35 682.099L905.89 682.544L907.396 684.941H897.682C897.687 684.802 897.655 684.665 897.588 684.543C897.521 684.422 897.423 684.32 897.303 684.251C897.183 684.181 897.046 684.145 896.907 684.147C896.769 684.149 896.633 684.189 896.515 684.262C894.289 685.612 892.521 687.6 891.439 689.967C890.357 692.335 890.012 694.973 890.449 697.539C894.246 719.152 898.572 743.755 900.906 756.926C901.506 760.295 903.416 763.289 906.218 765.252C909.021 767.216 912.487 767.989 915.858 767.403L1127.02 730.181C1130.37 729.575 1133.35 727.672 1135.31 724.885C1137.26 722.097 1138.04 718.65 1137.48 715.292V715.292ZM1113.72 653.254C1114.85 653.254 1115.95 653.589 1116.89 654.216C1117.83 654.843 1118.56 655.734 1118.99 656.776C1119.42 657.819 1119.54 658.966 1119.32 660.073C1119.1 661.179 1118.55 662.196 1117.76 662.994C1116.96 663.792 1115.94 664.335 1114.83 664.555C1113.73 664.775 1112.58 664.662 1111.54 664.231C1110.5 663.799 1109.6 663.067 1108.98 662.129C1108.35 661.191 1108.02 660.088 1108.02 658.959C1108.02 657.446 1108.62 655.995 1109.69 654.925C1110.76 653.855 1112.21 653.254 1113.72 653.254V653.254ZM1094.84 656.584C1095.97 656.584 1097.08 656.919 1098.01 657.546C1098.95 658.172 1099.68 659.063 1100.12 660.106C1100.55 661.149 1100.66 662.296 1100.44 663.402C1100.22 664.509 1099.68 665.526 1098.88 666.324C1098.08 667.122 1097.06 667.665 1095.96 667.885C1094.85 668.105 1093.7 667.992 1092.66 667.56C1091.62 667.129 1090.73 666.397 1090.1 665.459C1089.47 664.521 1089.14 663.418 1089.14 662.289C1089.14 661.539 1089.28 660.796 1089.57 660.103C1089.85 659.409 1090.27 658.779 1090.8 658.249C1091.33 657.718 1091.96 657.298 1092.66 657.013C1093.35 656.727 1094.09 656.581 1094.84 656.584V656.584ZM1126.66 728.696L915.582 765.94C914.115 766.199 912.61 766.167 911.155 765.845C909.699 765.523 908.322 764.917 907.1 764.062C905.879 763.207 904.838 762.12 904.038 760.863C903.237 759.606 902.691 758.203 902.433 756.735L894.458 711.474L1128 670.285L1135.95 715.568C1136.47 718.531 1135.79 721.58 1134.06 724.045C1132.34 726.509 1129.71 728.19 1126.74 728.717L1126.66 728.696Z" fill="#313643"/>
<path d="M915.795 747.933C915.61 747.931 915.433 747.864 915.293 747.743C915.154 747.623 915.061 747.458 915.031 747.276L911.022 724.582C911.004 724.481 911.006 724.378 911.029 724.279C911.051 724.179 911.093 724.085 911.152 724.002C911.212 723.919 911.287 723.849 911.374 723.795C911.461 723.742 911.558 723.706 911.659 723.691C1131.41 684.814 1116.18 687.508 1116.56 687.783C1116.95 688.059 1116.56 686.171 1120.81 710.987C1120.83 711.086 1120.83 711.188 1120.81 711.288C1120.79 711.387 1120.75 711.482 1120.69 711.565C1120.63 711.649 1120.56 711.719 1120.47 711.773C1120.39 711.827 1120.29 711.862 1120.19 711.877C908.414 749.333 916.007 747.933 915.795 747.933ZM912.677 725.07L916.41 746.279L1119.24 710.52L1115.5 689.31L912.677 725.07Z" fill="#313643"/>
<path d="M925.021 726.724C925.011 726.652 924.986 726.582 924.948 726.52C924.91 726.458 924.859 726.404 924.8 726.362C924.74 726.321 924.672 726.292 924.601 726.277C924.529 726.263 924.456 726.263 924.384 726.278C916.219 727.805 916.664 727.572 916.495 727.827C916.325 728.081 916.261 727.169 918.806 741.995C918.837 742.139 918.923 742.267 919.045 742.35C919.168 742.433 919.318 742.465 919.464 742.44C927.629 740.913 927.163 741.146 927.354 740.892C927.545 740.637 927.608 741.549 925.021 726.724Z" fill="#313643"/>
<path d="M937.98 738.622L935.562 724.879C935.536 724.73 935.452 724.597 935.329 724.51C935.206 724.423 935.053 724.387 934.904 724.412C926.739 725.981 927.205 725.706 927.014 725.981C926.824 726.257 926.76 725.324 929.347 740.149C929.372 740.273 929.437 740.385 929.534 740.466C929.63 740.547 929.752 740.592 929.878 740.595C930.09 740.595 931.278 740.361 937.534 739.259C937.675 739.228 937.799 739.145 937.881 739.028C937.964 738.91 937.999 738.765 937.98 738.622V738.622Z" fill="#313643"/>
<path d="M946.06 723.013C946.035 722.869 945.953 722.742 945.834 722.659C945.715 722.575 945.568 722.542 945.424 722.567C937.259 724.073 937.704 723.861 937.513 724.137C937.322 724.412 937.301 723.458 939.846 738.283C939.877 738.428 939.963 738.555 940.085 738.638C940.208 738.722 940.358 738.754 940.504 738.729C948.669 737.202 948.203 737.456 948.394 737.18C948.584 736.905 948.648 737.838 946.06 723.013Z" fill="#313643"/>
<path d="M956.58 721.167C956.57 721.095 956.546 721.026 956.508 720.963C956.469 720.901 956.419 720.848 956.359 720.806C956.3 720.764 956.232 720.735 956.16 720.721C956.089 720.706 956.015 720.706 955.944 720.722C947.778 722.228 948.224 722.016 948.033 722.27C947.842 722.525 947.8 721.613 950.366 736.438C950.392 736.581 950.473 736.708 950.592 736.792C950.712 736.875 950.859 736.908 951.002 736.883C959.189 735.356 958.723 735.59 958.913 735.335C959.104 735.081 959.168 735.993 956.58 721.167Z" fill="#313643"/>
<path d="M967.1 719.301C967.074 719.157 966.993 719.03 966.874 718.947C966.755 718.863 966.607 718.83 966.464 718.855C958.277 720.319 958.744 720.149 958.553 720.425C958.362 720.7 958.32 719.746 960.886 734.571C960.912 734.715 960.993 734.842 961.112 734.925C961.232 735.009 961.379 735.041 961.522 735.017C969.688 733.49 969.242 733.723 969.433 733.468C969.624 733.214 969.688 734.126 967.1 719.301Z" fill="#313643"/>
<path d="M980.038 731.199L977.62 717.455C977.61 717.383 977.585 717.314 977.547 717.252C977.509 717.189 977.459 717.136 977.399 717.094C977.339 717.052 977.272 717.023 977.2 717.009C977.129 716.994 977.055 716.995 976.984 717.01L969.433 718.325C969.36 718.337 969.291 718.365 969.228 718.405C969.166 718.445 969.112 718.498 969.071 718.559C969.029 718.62 969.001 718.689 968.986 718.762C968.972 718.835 968.973 718.91 968.988 718.982C971.639 733.829 971.363 732.896 971.639 733.087C971.915 733.277 971.639 733.256 979.593 731.835C979.665 731.825 979.734 731.8 979.796 731.762C979.859 731.724 979.912 731.674 979.954 731.614C979.996 731.554 980.025 731.487 980.039 731.415C980.054 731.344 980.053 731.27 980.038 731.199V731.199Z" fill="#313643"/>
<path d="M988.14 715.61C988.13 715.537 988.105 715.467 988.067 715.404C988.03 715.341 987.98 715.286 987.92 715.243C987.861 715.199 987.794 715.168 987.722 715.151C987.651 715.134 987.576 715.131 987.504 715.143C979.338 716.713 979.784 716.437 979.593 716.713C979.402 716.988 979.359 716.034 981.926 730.859C981.952 731.004 982.032 731.133 982.151 731.22C982.269 731.307 982.416 731.345 982.562 731.326C990.728 729.778 990.282 730.032 990.473 729.757C990.664 729.481 990.728 730.414 988.14 715.61Z" fill="#313643"/>
<path d="M998.66 713.723C998.629 713.582 998.547 713.458 998.429 713.375C998.311 713.293 998.166 713.258 998.024 713.277C989.837 714.741 990.303 714.571 990.113 714.825C989.922 715.08 989.879 714.168 992.446 728.993C992.456 729.066 992.48 729.135 992.519 729.197C992.557 729.259 992.607 729.313 992.667 729.355C992.726 729.397 992.794 729.426 992.866 729.44C992.937 729.454 993.011 729.454 993.082 729.439C1001.25 727.912 1000.8 728.145 1000.99 727.89C1001.18 727.636 1001.18 728.569 998.66 713.723Z" fill="#313643"/>
<path d="M1009.18 711.898C1009.17 711.825 1009.14 711.755 1009.1 711.693C1009.06 711.631 1009.01 711.577 1008.95 711.536C1008.88 711.494 1008.82 711.465 1008.74 711.451C1008.67 711.437 1008.59 711.438 1008.52 711.453C1000.36 712.959 1000.82 712.747 1000.63 713.001C1000.44 713.256 1000.4 712.344 1002.97 727.169C1002.99 727.312 1003.07 727.439 1003.19 727.523C1003.31 727.606 1003.46 727.639 1003.6 727.614C1011.77 726.066 1011.32 726.321 1011.51 726.045C1011.7 725.769 1011.7 726.724 1009.18 711.898Z" fill="#313643"/>
<path d="M1022.12 723.776L1019.7 710.032C1019.67 709.889 1019.59 709.762 1019.47 709.678C1019.35 709.595 1019.21 709.562 1019.06 709.587C1010.9 711.177 1011.34 710.88 1011.15 711.135C1010.96 711.389 1010.9 710.477 1013.49 725.303C1013.51 725.43 1013.57 725.547 1013.67 725.632C1013.76 725.717 1013.89 725.766 1014.02 725.769C1014.25 725.769 1015.42 725.515 1021.67 724.412C1021.74 724.402 1021.81 724.377 1021.88 724.339C1021.94 724.301 1021.99 724.251 1022.03 724.191C1022.08 724.131 1022.1 724.064 1022.12 723.992C1022.13 723.921 1022.13 723.847 1022.12 723.776Z" fill="#313643"/>
<path d="M1030.22 708.187C1030.21 708.114 1030.18 708.044 1030.14 707.982C1030.1 707.92 1030.05 707.866 1029.99 707.824C1029.92 707.783 1029.86 707.754 1029.78 707.74C1029.71 707.726 1029.63 707.726 1029.56 707.741C1021.4 709.205 1021.86 709.014 1021.67 709.29C1021.48 709.565 1021.44 708.632 1024.01 723.458C1024.03 723.601 1024.11 723.728 1024.23 723.811C1024.35 723.895 1024.5 723.928 1024.64 723.903C1032.81 722.355 1032.36 722.609 1032.55 722.334C1032.74 722.058 1032.74 723.012 1030.22 708.187Z" fill="#313643"/>
<path d="M1058.6 643.413C1062.05 643.413 1064.85 640.612 1064.85 637.156C1064.85 633.701 1062.05 630.899 1058.6 630.899C1055.14 630.899 1052.34 633.701 1052.34 637.156C1052.34 640.612 1055.14 643.413 1058.6 643.413Z" fill="#109CF1"/>
<path d="M1058.6 643.986C1057.25 643.99 1055.92 643.593 1054.8 642.845C1053.67 642.097 1052.79 641.032 1052.27 639.785C1051.75 638.537 1051.61 637.163 1051.88 635.837C1052.14 634.511 1052.79 633.292 1053.74 632.335C1054.69 631.378 1055.91 630.725 1057.24 630.46C1058.56 630.195 1059.94 630.329 1061.19 630.845C1062.43 631.361 1063.5 632.237 1064.25 633.36C1065.01 634.484 1065.41 635.805 1065.41 637.157C1065.41 638.964 1064.69 640.698 1063.41 641.978C1062.14 643.258 1060.41 643.98 1058.6 643.986V643.986ZM1058.6 631.451C1057.47 631.451 1056.37 631.786 1055.43 632.413C1054.49 633.04 1053.76 633.931 1053.33 634.973C1052.9 636.016 1052.78 637.163 1053 638.27C1053.22 639.376 1053.77 640.393 1054.56 641.191C1055.36 641.989 1056.38 642.532 1057.48 642.752C1058.59 642.972 1059.74 642.859 1060.78 642.428C1061.82 641.996 1062.71 641.265 1063.34 640.326C1063.97 639.388 1064.3 638.285 1064.3 637.157C1064.3 635.645 1063.69 634.197 1062.63 633.128C1061.56 632.06 1060.11 631.457 1058.6 631.451Z" fill="#313643"/>
<path d="M924.554 697.794C845.464 699.109 774.327 633.126 774.327 547.482C774.367 511.085 787.608 475.938 811.593 448.562C835.579 421.186 868.681 403.44 904.757 398.617C940.833 393.794 977.434 402.221 1007.77 422.334C1038.1 442.447 1060.11 472.882 1069.71 507.99C1069.74 508.088 1069.75 508.19 1069.74 508.291C1069.72 508.391 1069.69 508.489 1069.64 508.577C1069.6 508.666 1069.53 508.744 1069.45 508.807C1069.37 508.87 1069.28 508.917 1069.18 508.945C1069.08 508.973 1068.98 508.981 1068.88 508.969C1068.78 508.958 1068.68 508.927 1068.59 508.877C1068.51 508.828 1068.43 508.762 1068.36 508.682C1068.3 508.603 1068.25 508.512 1068.23 508.415C1060.94 481.646 1046.31 457.45 1025.99 438.556C1005.67 419.663 980.479 406.826 953.253 401.494C926.027 396.161 897.852 398.547 871.91 408.38C845.967 418.214 823.291 435.104 806.44 457.144C789.589 479.184 779.235 505.495 776.547 533.108C773.86 560.721 778.945 588.536 791.229 613.412C803.513 638.288 822.507 659.234 846.066 673.886C869.625 688.538 896.811 696.312 924.554 696.33V696.33C952.798 696.271 980.447 688.209 1004.29 673.077C1028.14 657.945 1047.21 636.364 1059.3 610.835C1059.39 610.647 1059.54 610.501 1059.74 610.43C1059.93 610.358 1060.15 610.367 1060.34 610.453C1060.52 610.545 1060.66 610.705 1060.73 610.899C1060.8 611.094 1060.79 611.307 1060.7 611.493C1048.49 637.253 1029.23 659.03 1005.16 674.303C981.093 689.576 953.189 697.721 924.681 697.794H924.554Z" fill="#313643"/>
<path d="M1046.78 426.695C1040.81 426.695 1034.97 428.466 1030 431.785C1025.04 435.103 1021.17 439.82 1018.88 445.339C1016.6 450.858 1016 456.931 1017.16 462.789C1018.33 468.648 1021.2 474.029 1025.43 478.253C1029.65 482.477 1035.03 485.354 1040.89 486.519C1046.75 487.684 1052.82 487.086 1058.34 484.8C1063.86 482.514 1068.58 478.643 1071.9 473.677C1075.22 468.71 1076.99 462.871 1076.99 456.897C1076.98 448.89 1073.79 441.215 1068.13 435.553C1062.47 429.892 1054.79 426.706 1046.78 426.695V426.695ZM1059.51 482.603C1051.26 465.528 1039.83 450.176 1025.85 437.363C1028.71 434.275 1032.21 431.854 1036.11 430.273C1040.01 428.692 1044.2 427.989 1048.41 428.215C1052.61 428.44 1056.71 429.589 1060.41 431.578C1064.12 433.568 1067.34 436.35 1069.85 439.727C1072.36 443.103 1074.09 446.991 1074.93 451.114C1075.77 455.237 1075.68 459.493 1074.69 463.581C1073.69 467.668 1071.81 471.486 1069.17 474.763C1066.53 478.04 1063.21 480.695 1059.43 482.539L1059.51 482.603Z" fill="#313643"/>
<path d="M895.455 517.026C895.437 516.927 895.4 516.832 895.345 516.748C895.291 516.663 895.22 516.59 895.137 516.533C895.054 516.476 894.961 516.436 894.863 516.415C894.764 516.394 894.663 516.392 894.564 516.411L891.743 516.899C891.098 513.372 889.745 510.013 887.765 507.023C885.786 504.034 883.221 501.477 880.226 499.507C882.341 496.659 883.863 493.416 884.701 489.97C885.539 486.523 885.676 482.943 885.104 479.443L887.947 478.955C888.149 478.914 888.329 478.796 888.447 478.626C888.566 478.456 888.614 478.247 888.583 478.043C888.542 477.841 888.423 477.664 888.253 477.549C888.082 477.434 887.873 477.39 887.671 477.428L863.428 481.67C863.226 481.686 863.038 481.783 862.907 481.938C862.776 482.093 862.712 482.294 862.728 482.497C862.745 482.699 862.842 482.887 862.997 483.018C863.152 483.149 863.353 483.214 863.556 483.197L866.567 482.666C867.225 486.15 868.576 489.465 870.54 492.416C872.504 495.367 875.041 497.894 877.999 499.846C875.859 502.721 874.323 506 873.485 509.485C872.646 512.97 872.523 516.588 873.121 520.122L870.3 520.716C870.097 520.757 869.918 520.875 869.8 521.045C869.681 521.215 869.633 521.424 869.664 521.628C869.705 521.83 869.824 522.007 869.994 522.122C870.165 522.237 870.374 522.281 870.576 522.243L894.84 518.001C894.948 517.985 895.051 517.945 895.142 517.885C895.234 517.825 895.311 517.746 895.37 517.654C895.428 517.561 895.466 517.457 895.48 517.349C895.495 517.241 895.486 517.13 895.455 517.026V517.026ZM868.094 482.539L883.599 479.803C884.128 483.096 883.995 486.462 883.209 489.703C882.422 492.944 880.997 495.996 879.017 498.68C876.204 496.863 873.787 494.497 871.91 491.723C870.033 488.95 868.735 485.826 868.094 482.539ZM879.293 500.822C882.13 502.674 884.56 505.085 886.434 507.908C888.308 510.73 889.588 513.905 890.195 517.238L874.648 519.974C874.071 516.623 874.185 513.19 874.984 509.886C875.783 506.581 877.249 503.475 879.293 500.758V500.822Z" fill="#313643"/>
<path d="M868.243 725.388L853.227 714.889L863.831 699.873C863.892 699.79 863.935 699.696 863.958 699.596C863.981 699.496 863.983 699.393 863.966 699.292C863.948 699.191 863.91 699.094 863.854 699.008C863.798 698.922 863.726 698.849 863.641 698.791C863.47 698.68 863.263 698.638 863.062 698.674C862.861 698.709 862.682 698.819 862.559 698.982L851.954 713.998L836.938 703.394C836.772 703.279 836.567 703.234 836.368 703.27C836.169 703.306 835.993 703.419 835.877 703.585C835.817 703.668 835.774 703.762 835.751 703.862C835.728 703.961 835.725 704.065 835.743 704.166C835.761 704.267 835.799 704.363 835.855 704.449C835.911 704.535 835.983 704.609 836.068 704.666L851.085 715.271L840.48 730.266C840.395 730.435 840.373 730.628 840.419 730.811C840.465 730.994 840.576 731.154 840.73 731.262C840.885 731.371 841.073 731.42 841.261 731.4C841.449 731.381 841.623 731.294 841.752 731.157L852.357 716.141L867.373 726.745C867.553 726.861 867.772 726.9 867.981 726.854C868.189 726.808 868.372 726.681 868.487 726.501C868.602 726.321 868.641 726.103 868.596 725.894C868.55 725.685 868.423 725.503 868.243 725.388V725.388Z" fill="#313643"/>
<path d="M1178.41 625.851C1163.18 618.683 1142.21 621.164 1124.52 614.78C1126.17 611.514 1127.1 605.872 1124.52 604.578C1111.35 594.122 1068.25 563.517 1056.39 556.115C1060.46 554.885 1107.06 540.738 1118.75 537.556C1122.18 537.153 1122.25 530.748 1121.87 527.291C1127.17 526.68 1132.52 526.503 1137.86 526.761C1138.03 526.786 1138.21 526.743 1138.36 526.641C1138.51 526.538 1138.61 526.384 1138.64 526.209C1145.34 502.433 1147.25 474.988 1147.76 464.299C1147.77 464.154 1147.74 464.008 1147.68 463.879C1147.61 463.751 1147.5 463.644 1147.38 463.573C1147.25 463.501 1147.1 463.468 1146.96 463.476C1146.81 463.485 1146.67 463.535 1146.55 463.62C1129.44 475.179 1127.47 492.974 1116.99 501.797C1115.52 497.322 1113.4 494.883 1111.43 495.434C1027.93 518.235 1025.07 519.762 1018.43 523.685C1011.45 527.8 1003.16 538.935 978.829 569.668C977.896 569.986 976.475 570.537 974.587 571.258C975.33 567.377 976.708 558.32 977.26 552.891C977.268 552.319 977.138 551.754 976.879 551.244C976.621 550.734 976.242 550.295 975.775 549.964C974.036 548.801 972.043 548.074 969.964 547.843C969.136 537.047 966.994 510.684 966.994 505.212C966.994 498.001 972.7 488.435 972.933 488.053C974.502 485.487 974.46 482.73 974.227 476.155C974.227 474.67 973.569 473.716 972.636 473.61C971.13 473.419 969.624 475.497 968.394 479.506C967.376 482.815 964.746 485.381 963.261 485.127C961.777 484.872 961.395 482.73 961.48 479.23C961.628 472.867 962.689 463.769 962.901 461.33C963.113 458.89 962.498 456.812 961.183 456.579C959.868 456.345 958.426 458 957.598 461.054C957.047 462.963 956.071 466.547 955.244 470.047C955.075 466.059 955.053 462.538 955.011 459.018C955.011 456.303 954.141 454.649 952.89 454.543C951.639 454.436 950.281 456.239 949.751 459.357C949.327 461.987 948.86 465.317 948.5 468.498C948.054 465.253 947.863 463.111 947.651 461.117C947.206 457.3 945.742 456.876 945.064 456.876C943.6 456.876 942.625 458.827 942.391 462.029C942.243 464.85 942.158 467.714 942.137 470.513C941.797 468.859 941.585 467.714 941.246 465.89C940.758 463.281 939.719 461.86 938.51 461.987C937.301 462.114 936.389 464.108 936.389 467.205C936.327 472.827 936.724 478.445 937.577 484.002C938.574 488.541 942.709 500.376 943.621 503.536C939.74 507.778 940.228 516.559 944.852 519.55C944.852 519.55 944.852 541.077 944.852 545.68C940.864 546.655 940.44 548.522 940.61 549.625C940.461 552.467 940.334 559.508 940.249 564.026C925.615 567.419 896.918 575.012 883.45 572.51C885.662 569.133 887.143 565.332 887.798 561.349C888.452 557.366 888.267 553.29 887.252 549.383C886.237 545.477 884.416 541.826 881.906 538.665C879.396 535.504 876.252 532.903 872.677 531.03C869.101 529.157 865.174 528.053 861.146 527.788C857.118 527.524 853.08 528.105 849.29 529.495C845.501 530.885 842.044 533.052 839.142 535.858C836.241 538.663 833.958 542.045 832.441 545.786C830.286 543.545 827.51 542 824.47 541.349C821.43 540.697 818.264 540.97 815.381 542.132C812.497 543.294 810.026 545.291 808.286 547.868C806.546 550.445 805.617 553.483 805.617 556.592C805.617 559.701 806.546 562.739 808.286 565.316C810.026 567.892 812.497 569.89 815.381 571.052C818.264 572.213 821.43 572.486 824.47 571.835C827.51 571.184 830.286 569.639 832.441 567.398C835.126 573.989 840.142 579.362 846.534 582.491C852.926 585.62 860.245 586.288 867.098 584.366C869.219 595.395 867.373 602.924 865.486 613.677C861.244 637.368 856.111 666.849 863.365 676.584C871.191 687.189 881.181 685.365 908.774 685.365C912.889 685.598 914.31 679.342 914.416 675.015C922.009 673.594 931.384 671.727 937.937 670.391C946.421 668.652 948.818 665.534 951.554 661.908C953.017 659.956 952.678 660.465 954.163 658.578C956.602 655.545 958.192 653.742 959.974 654.675C965.425 657.56 974.821 662.014 976.369 659.553C976.729 658.981 976.645 658.026 975.351 657.072C972.721 655.12 970.706 653.509 968.988 652.003C972.381 652.618 983.835 654.442 984.725 651.112C984.895 650.433 984.556 649.479 983.05 648.991L974.036 646.234C977.26 646.34 987.27 646.425 987.61 643.222C987.628 642.866 987.524 642.515 987.316 642.226C987.108 641.937 986.808 641.727 986.465 641.631C998.618 638.004 1009.14 625.088 1018.05 609.944C1024.6 605.49 1030.77 601.27 1037.3 596.964C1047.48 603.603 1094.76 634.356 1103.29 639.383C1106.36 641.207 1110.37 637.262 1112.45 634.378C1115.14 637.147 1117.97 639.773 1120.93 642.246C1123.05 643.795 1159.11 635.735 1178.47 626.848C1178.58 626.702 1178.64 626.521 1178.63 626.338C1178.62 626.155 1178.54 625.982 1178.41 625.851V625.851ZM1120.15 500.928C1128.95 491.659 1131.75 476.303 1146.17 465.784C1145.56 477.279 1143.56 502.815 1137.35 525.17C1129.28 524.829 1121.21 525.47 1113.3 527.079C1111.48 520.628 1110.37 514.001 1109.97 507.312C1113.86 506.109 1117.37 503.908 1120.15 500.928V500.928ZM969.03 554.757C961.431 555.19 953.811 554.439 946.442 552.53C946.442 548.607 946.442 520.377 946.442 520.377C948.025 520.859 949.724 520.793 951.264 520.188C952.804 519.584 954.094 518.477 954.926 517.047C958.682 517.166 962.429 516.591 965.976 515.35C966.846 527.079 968.627 548.713 969.03 554.757ZM939.146 483.748C938.318 478.295 937.935 472.783 938.001 467.268C937.851 465.998 938.088 464.712 938.68 463.578C938.828 463.578 939.401 464.214 939.783 466.25C942.137 478.743 942.222 475.858 942.391 479.421C942.422 479.605 942.516 479.771 942.658 479.891C942.8 480.011 942.98 480.077 943.165 480.077C943.351 480.077 943.531 480.011 943.673 479.891C943.815 479.771 943.909 479.605 943.94 479.421C943.643 473.691 943.643 467.95 943.94 462.22C944.13 459.548 944.852 458.572 945.085 458.53C945.318 458.487 945.848 459.124 946.103 461.372C946.591 465.614 946.909 469.241 947.885 474.564C947.885 475.688 947.715 476.685 947.694 477.406C947.724 477.59 947.819 477.756 947.96 477.876C948.102 477.997 948.282 478.063 948.468 478.063C948.654 478.063 948.833 477.997 948.975 477.876C949.117 477.756 949.211 477.59 949.242 477.406C949.39 473.419 950.451 464.553 951.363 459.633C951.808 457.003 952.635 456.112 952.848 456.112C953.06 456.112 953.59 456.77 953.611 459.06C953.844 476.982 954.311 474.776 954.056 476.643C954.026 476.845 954.076 477.052 954.198 477.217C954.319 477.382 954.501 477.492 954.703 477.523C954.906 477.554 955.112 477.503 955.277 477.382C955.443 477.261 955.553 477.079 955.584 476.876C956.503 471.678 957.721 466.536 959.232 461.478C959.995 458.7 960.907 458.127 961.056 458.127C961.204 458.127 961.713 458.89 961.501 461.224C961.289 463.557 960.228 472.592 960.08 479.209C959.932 484.957 961.692 486.442 963.177 486.675C965.87 487.099 968.946 483.493 970.006 479.973C971.215 476.049 972.339 475.179 972.53 475.137C972.738 475.465 972.835 475.852 972.806 476.24C973.039 482.475 973.081 485.084 971.745 487.269C968.861 492.062 965.51 499.74 965.573 505.573C962.433 506.698 959.131 507.306 955.796 507.375C953.823 501.352 948.415 500.291 945 502.54C943.834 498.828 940.037 487.778 939.146 483.748ZM948.5 502.964C956.496 502.815 957.45 519.125 948.5 519.125C940.525 519.104 940.695 503.133 948.5 502.964V502.964ZM862.326 568.713C861.626 567.95 861.011 567.589 860.523 567.631C855.263 567.971 853.948 563.39 859.123 564.323C860.395 564.577 860.968 564.111 861.244 563.686C862.071 562.308 860.247 559.445 858.338 556.963C862.062 554.828 865.456 552.163 868.413 549.052C877.554 556.602 882.347 563.39 880.969 566.847C880.078 569.116 876.493 570.092 870.597 569.668C870.419 569.648 870.24 569.692 870.091 569.791C869.941 569.89 869.832 570.039 869.781 570.211C869.731 570.383 869.742 570.567 869.814 570.732C869.886 570.896 870.013 571.03 870.173 571.11C875.645 573.994 885.698 574.715 890.11 574.715C892.019 574.715 894.034 574.715 896.155 574.44C893.525 586.126 883.747 596.222 869.113 602.394C869.9 596.119 869.664 589.758 868.413 583.56C868.413 583.56 868.413 583.56 868.413 583.411C867.56 578.084 865.475 573.03 862.326 568.649V568.713ZM864.574 675.991C856.238 664.75 866.164 620.634 868.816 604.218C884.617 597.855 895.115 586.953 897.745 574.334C909.453 573.082 925.933 569.074 940.27 565.85C940.27 566.91 940.27 567.716 940.27 567.971C940.267 568.073 940.285 568.174 940.322 568.269C940.359 568.365 940.415 568.451 940.486 568.524C940.558 568.598 940.643 568.656 940.737 568.695C940.831 568.735 940.932 568.756 941.034 568.756C941.238 568.756 941.435 568.676 941.581 568.533C941.728 568.391 941.813 568.196 941.819 567.992C941.819 566.38 941.967 557.196 942.116 552.064C944.533 554.036 949.857 555.436 957.62 556.115C962.158 556.496 971.597 557.069 975.627 554.927C974.905 560.95 973.506 569.371 973.039 571.895C964.11 575.479 949.093 581.799 942.837 584.62C917.682 572.828 912.337 574.715 900.969 576.879C900.87 576.897 900.776 576.934 900.691 576.988C900.607 577.043 900.534 577.114 900.477 577.196C900.419 577.279 900.379 577.372 900.358 577.471C900.337 577.569 900.336 577.671 900.354 577.77C900.372 577.871 900.41 577.967 900.466 578.053C900.521 578.14 900.594 578.214 900.679 578.271C900.764 578.328 900.86 578.368 900.961 578.388C901.062 578.407 901.166 578.406 901.266 578.385C912.253 576.264 917.428 574.397 942.2 586.041C944.767 593.931 942.922 611.238 934.183 620.231C929.475 621.546 924.384 622.776 919.337 623.9C914.139 622.711 909.062 621.042 904.172 618.916C904.405 618.428 904.66 617.94 904.893 617.474C904.94 617.385 904.97 617.287 904.979 617.186C904.989 617.086 904.979 616.985 904.949 616.888C904.92 616.792 904.871 616.702 904.807 616.624C904.743 616.546 904.664 616.482 904.575 616.434C904.486 616.387 904.388 616.358 904.288 616.348C904.187 616.338 904.086 616.349 903.989 616.378C903.893 616.408 903.803 616.456 903.725 616.52C903.647 616.584 903.583 616.663 903.536 616.753C898.691 626.497 894.785 636.682 891.87 647.167C888.456 647.782 885.295 648.333 883.132 648.673C882.993 648.741 882.878 648.849 882.802 648.984C882.726 649.118 882.692 649.273 882.706 649.427C882.72 649.581 882.78 649.727 882.879 649.846C882.978 649.966 883.11 650.052 883.259 650.094C883.705 650.094 899.675 647.231 904.151 646.509C902.433 648.948 900.884 654.272 901.457 665.746C901.712 670.837 902.602 680.19 905.975 683.987C880.926 684.177 871.721 685.535 864.574 675.927V675.991ZM941.437 644.325C939.809 645.403 938.083 646.326 936.283 647.082C934.395 647.379 922.179 648.736 912.083 649.585C911.531 646.721 909.707 644.24 906.844 644.622C903.981 645.004 898.615 645.958 893.588 646.743C895.248 640.803 897.26 634.967 899.612 629.266C910.619 627.272 923.43 624.727 934.268 621.673C937.696 627.109 941.93 631.994 946.824 636.159C945.255 639.004 943.453 641.714 941.437 644.261V644.325ZM952.529 628.078C952.529 628.078 953.908 629.393 952.042 637.856C949.772 639.171 947.291 640.698 944.958 642.098C950.472 634.102 951.554 628.884 952.529 628.015V628.078ZM967.885 644.643C966.634 644.198 965.446 643.773 964.364 643.349C964.27 643.312 964.169 643.294 964.067 643.296C963.965 643.298 963.865 643.321 963.772 643.362C963.679 643.404 963.596 643.463 963.526 643.538C963.457 643.612 963.403 643.699 963.367 643.795C963.329 643.888 963.31 643.988 963.311 644.088C963.312 644.189 963.333 644.289 963.372 644.381C963.412 644.474 963.469 644.558 963.541 644.628C963.613 644.699 963.698 644.754 963.792 644.791C968.861 646.785 976.22 648.864 982.498 650.815C982.901 650.942 983.092 651.091 983.135 651.048C982.753 651.578 978.893 652.893 966.528 650.306L964.131 648.185C963.976 648.053 963.775 647.987 963.573 648.003C963.37 648.019 963.181 648.115 963.049 648.27C962.917 648.424 962.852 648.625 962.868 648.828C962.884 649.031 962.979 649.219 963.134 649.351C967.376 652.957 969.751 655.163 974.418 658.599C974.58 658.724 974.73 658.866 974.863 659.023C974.057 659.129 970.791 659.023 960.674 653.593C957.217 651.791 954.65 655.884 951.936 659.171C948.033 663.901 947.015 667.231 937.598 669.161C927.587 671.282 910.174 674.591 904.129 675.524C902.63 667.673 902.508 659.62 903.769 651.727C912.634 651.282 932.783 649.224 936.474 648.63C939.125 648.206 955.414 636.647 959.635 635.905C960.759 635.714 976.136 636.074 982.117 636.159C982.525 636.148 982.931 636.228 983.304 636.393C983.304 636.393 982.265 638.62 968.733 639.298C967.079 638.98 965.552 638.683 964.258 638.386C964.059 638.341 963.85 638.376 963.675 638.483C963.501 638.59 963.375 638.761 963.325 638.959C963.285 639.158 963.322 639.365 963.429 639.538C963.535 639.711 963.702 639.837 963.898 639.892C969.645 641.207 979.359 642.628 985.298 643.349C985.722 643.349 985.913 643.498 985.977 643.476C985.616 644.007 981.692 645.852 967.885 644.579V644.643ZM982.011 641.334C979.762 641.016 977.344 640.677 974.948 640.295C979.974 639.722 984.916 638.577 984.853 636.35C984.853 635.29 983.707 634.568 982.138 634.568C974.418 634.462 960.631 634.102 959.338 634.356C957.4 634.941 955.546 635.775 953.823 636.838C955.053 630.73 954.756 627.124 952.975 626.594C951.936 626.297 950.854 627.145 950.345 628.715C949.515 630.831 948.566 632.899 947.503 634.908C942.856 630.88 938.826 626.192 935.541 620.994C944.427 611.535 946.294 594.377 943.727 585.893C951.639 582.393 969.518 574.906 976.984 572.022C971.936 578.385 966.188 585.638 959.613 593.868C959.551 593.947 959.504 594.038 959.477 594.135C959.449 594.232 959.441 594.334 959.453 594.435C959.465 594.535 959.496 594.632 959.546 594.721C959.595 594.809 959.661 594.887 959.741 594.949C959.82 595.012 959.911 595.058 960.008 595.086C960.106 595.113 960.207 595.121 960.308 595.11C960.408 595.098 960.505 595.066 960.594 595.017C960.682 594.968 960.76 594.901 960.822 594.822C1003.69 541.035 1011.87 529.348 1019.23 524.958C1025.6 521.246 1029.01 520.037 1109.37 497.577C1107.97 500.885 1107.99 507.672 1109.37 516.941C1110.2 522.073 1112.39 533.102 1116.25 536.581C1104.47 539.847 1045.96 557.599 1041.1 559.042C1040.99 559.075 1040.9 559.13 1040.81 559.203C1040.73 559.276 1040.66 559.365 1040.61 559.466C1029.1 584.344 1009.18 638.174 982.011 641.271V641.334ZM1101.84 637.092C1089.27 629.266 1046.23 601.248 1037.62 595.628C1037.5 595.544 1037.35 595.499 1037.2 595.499C1037.05 595.499 1036.9 595.544 1036.77 595.628L1032.09 598.746C1034.21 590.941 1036.79 575.415 1038.07 569.052C1039.45 565.956 1040.76 563.029 1041.97 560.42L1054.42 556.772C1063.6 562.223 1107.06 593.019 1122.04 604.642C1116.84 606.296 1111.24 614.186 1108.42 618.831C1103.12 627.506 1101.36 633.72 1101.84 637.135V637.092ZM1121.53 641.186C1115.91 636.944 1115.16 633.296 1105.2 628.312C1107.71 622.43 1111.05 616.932 1115.1 611.98C1133.87 623.412 1158.81 619.255 1176.18 626.509C1162.29 632.596 1135.44 640.274 1121.53 641.228V641.186Z" fill="#313643"/>
<path d="M-53.9559 192.158C-68.8432 160.512 -71.6984 124.528 -61.9881 90.9302C-52.2777 57.3323 -30.6662 28.4196 -1.19197 9.59476C28.2823 -9.23009 63.6025 -16.679 98.1686 -11.36C132.735 -6.04097 164.181 11.682 186.633 38.4971C186.705 38.5832 186.74 38.6945 186.73 38.8066C186.721 38.9187 186.667 39.0223 186.581 39.0947C186.495 39.167 186.383 39.2022 186.271 39.1925C186.159 39.1828 186.056 39.1289 185.983 39.0428C163.656 12.4081 132.398 -5.19001 98.0463 -10.4658C63.6942 -15.7415 28.5962 -8.33423 -0.694396 10.3731C-29.985 29.0804 -51.4657 57.8087 -61.1257 91.1941C-70.7857 124.58 -67.9646 160.34 -53.1892 191.797C-53.146 191.898 -53.1436 192.012 -53.1826 192.115C-53.2217 192.217 -53.299 192.301 -53.3984 192.348C-53.4978 192.395 -53.6115 192.401 -53.7155 192.366C-53.8195 192.33 -53.9057 192.256 -53.9559 192.158Z" fill="#313643"/>
<path d="M156.852 -51.8223C158.119 -43.6583 160.111 -35.6234 162.804 -27.8128C170.117 -6.50263 185.512 17.9646 194.791 40.6707C194.842 40.813 194.837 40.9696 194.777 41.1082C194.716 41.2469 194.605 41.3571 194.466 41.4165C194.327 41.4758 194.17 41.4798 194.028 41.4275C193.886 41.3752 193.77 41.2706 193.702 41.1352C187.163 26.7954 177.488 10.8184 169.839 -3.36361C163.477 -14.4635 158.407 -26.2562 154.73 -38.5107C153.493 -42.6481 152.481 -46.8494 151.697 -51.0961C151.642 -51.4384 151.656 -51.7883 151.738 -52.1253C151.819 -52.4622 151.968 -52.7795 152.173 -53.0585C152.379 -53.3375 152.639 -53.5726 152.937 -53.7501C153.234 -53.9277 153.565 -54.044 153.908 -54.0923C154.251 -54.1406 154.601 -54.1199 154.936 -54.0314C155.271 -53.943 155.586 -53.7885 155.86 -53.5772C156.135 -53.3658 156.365 -53.1017 156.537 -52.8004C156.708 -52.499 156.818 -52.1665 156.859 -51.8223H156.852Z" fill="#313643"/>
<path d="M115.766 127.413C115.268 121.679 113.525 116.122 110.659 111.13C107.794 106.139 103.874 101.832 99.1729 98.5103C99.081 98.4476 98.9682 98.4235 98.8587 98.4432C98.7492 98.463 98.6519 98.5249 98.5877 98.6158C98.5235 98.7066 98.4976 98.819 98.5155 98.9288C98.5334 99.0386 98.5938 99.1369 98.6835 99.2026L98.9429 99.3875C99.0737 104.486 99.3285 114.151 99.6442 120.937C103.995 119.776 108.361 118.672 112.742 117.624C115.803 126.031 115.865 135.238 112.916 143.685C109.966 152.132 104.187 159.299 96.5577 163.973C88.9284 168.646 79.9179 170.539 71.053 169.329C62.1881 168.119 54.014 163.882 47.9157 157.335C43.8769 145.269 47.1625 130.99 52.3018 125.233L47.3948 104.982L47.5887 104.757C47.6612 104.673 47.6981 104.565 47.6916 104.454C47.685 104.344 47.6355 104.24 47.5537 104.166C47.4719 104.091 47.3641 104.052 47.2536 104.055C47.143 104.059 47.0383 104.106 46.9618 104.186C42.5298 109.057 39.3813 114.955 37.8007 121.348C36.22 127.741 36.2571 134.427 37.9086 140.802C39.56 147.177 42.7738 153.04 47.2596 157.861C51.7453 162.683 57.3616 166.31 63.6011 168.417C69.8405 170.523 76.5064 171.042 82.9965 169.926C89.4867 168.809 95.5964 166.094 100.774 162.024C105.951 157.955 110.033 152.659 112.65 146.616C115.268 140.573 116.338 133.974 115.766 127.413V127.413Z" fill="#313643"/>
<path d="M-51.074 197.936C-51.1184 197.837 -51.1236 197.725 -51.0885 197.623C-51.0534 197.521 -50.9807 197.436 -50.8852 197.386C-50.7897 197.336 -50.6786 197.324 -50.5746 197.352C-50.4705 197.381 -50.3814 197.449 -50.3253 197.541C-41.3228 214.621 -28.9577 229.703 -13.974 241.88C1.00965 254.057 18.3021 263.076 36.8625 268.395C55.4229 273.714 74.8676 275.222 94.0263 272.83C113.185 270.438 131.662 264.194 148.344 254.474C148.441 254.417 148.557 254.401 148.666 254.43C148.775 254.458 148.868 254.529 148.925 254.626C148.982 254.723 148.998 254.839 148.969 254.948C148.94 255.057 148.87 255.15 148.773 255.207C131.991 264.983 113.405 271.263 94.1328 273.669C74.8607 276.075 55.3011 274.557 36.631 269.207C17.9608 263.856 0.566158 254.784 -14.5063 242.536C-29.5788 230.287 -42.0176 215.116 -51.074 197.936V197.936Z" fill="#313643"/>
<path d="M76.2098 222.651C62.0332 222.617 48.0565 219.304 35.3729 212.971C22.6894 206.638 11.6428 197.457 3.09731 186.145C-5.44821 174.834 -11.261 161.698 -13.8865 147.767C-16.512 133.836 -15.8789 119.486 -12.0369 105.839C-12.0028 105.736 -11.9303 105.65 -11.8343 105.598C-11.7383 105.547 -11.6262 105.534 -11.5213 105.563C-11.4163 105.592 -11.3266 105.661 -11.2706 105.754C-11.2146 105.847 -11.1967 105.959 -11.2205 106.065C-15.3707 120.734 -15.766 136.211 -12.3698 151.073C-8.97368 165.935 -1.89522 179.705 8.21457 191.115C18.3244 202.526 31.1409 211.212 45.4856 216.373C59.8302 221.535 75.2424 223.007 90.3048 220.654C105.367 218.301 119.596 212.199 131.683 202.908C143.77 193.617 153.327 181.437 159.475 167.486C165.623 153.536 168.165 138.264 166.866 123.074C165.568 107.884 160.471 93.2649 152.045 80.5603C151.987 80.4667 151.967 80.3543 151.991 80.2467C152.014 80.1391 152.079 80.0449 152.17 79.9839C152.262 79.923 152.374 79.9001 152.482 79.9202C152.591 79.9402 152.687 80.0016 152.751 80.0913C161.933 93.9253 167.192 109.991 167.966 126.577C168.74 143.164 165.001 159.649 157.146 174.279C149.292 188.908 137.616 201.133 123.364 209.651C109.111 218.169 92.8142 222.662 76.2098 222.651V222.651Z" fill="#313643"/>
<path d="M127.334 55.5518C113.188 46.0385 96.6723 40.6509 79.6375 39.9919C79.5818 39.99 79.527 39.9771 79.4763 39.9541C79.4256 39.931 79.38 39.8981 79.342 39.8574C79.304 39.8167 79.2744 39.7689 79.2548 39.7167C79.2353 39.6645 79.2262 39.609 79.2282 39.5533C79.2301 39.4977 79.243 39.4429 79.266 39.3922C79.2891 39.3415 79.322 39.2959 79.3627 39.2579C79.4034 39.2199 79.4512 39.1902 79.5034 39.1707C79.5556 39.1512 79.6111 39.1421 79.6668 39.1441C96.7833 39.7576 113.383 45.1687 127.573 54.7602C127.657 54.8077 127.721 54.8822 127.757 54.9714C127.793 55.0607 127.797 55.1594 127.769 55.2514C127.742 55.3434 127.683 55.4233 127.604 55.4778C127.525 55.5324 127.43 55.5585 127.334 55.5518Z" fill="#313643"/>
<path d="M16.9743 61.8118C16.8874 61.8122 16.8025 61.786 16.731 61.7366C16.6595 61.6871 16.605 61.617 16.5747 61.5355C16.5444 61.4541 16.5399 61.3653 16.5618 61.2812C16.5836 61.1971 16.6308 61.1218 16.6969 61.0654C27.1456 52.1487 39.4601 45.6875 52.7348 42.1568C52.8436 42.1269 52.9599 42.1415 53.058 42.1973C53.1561 42.2531 53.228 42.3456 53.2579 42.4545C53.2878 42.5633 53.2733 42.6796 53.2175 42.7777C53.1616 42.8758 53.0691 42.9477 52.9603 42.9776C39.7384 46.5651 27.4578 52.9924 16.9743 61.8118V61.8118Z" fill="#313643"/>
<path d="M156.489 109.152C137.337 112.026 118.359 115.964 99.6443 120.948L99.5315 118.506L52.3379 125.382L52.3064 125.233C46.0644 132.223 42.5556 151.788 51.578 164.696C55.7152 170.47 61.925 174.419 68.908 175.719C88.8471 180.303 122.804 168.448 139.838 161.785C138.914 177.915 138.16 199.507 136.816 223.348C148.625 227.843 161.517 228.663 173.799 225.7C177.457 196.867 181.069 164.362 182.289 132.305C182.423 128.996 181.824 125.699 180.536 122.648C179.247 119.598 177.302 116.869 174.837 114.658C172.373 112.446 169.45 110.806 166.279 109.854C163.107 108.902 159.764 108.663 156.489 109.152V109.152Z" fill="#109CF1"/>
<path d="M93.7203 181.76L81.9106 228.201C81.0763 231.504 79.5529 234.594 77.4404 237.268C75.3278 239.941 72.6739 242.138 69.6527 243.714C66.6315 245.29 63.3113 246.209 59.9099 246.411C56.5085 246.614 53.1027 246.094 49.916 244.888L-17.4399 219.381C-16.6552 203.855 -13.0945 192.059 -2.26122 180.966L45.1894 197.225L51.5735 164.696C55.7107 170.47 61.9205 174.42 68.9035 175.719L93.7203 181.76Z" fill="#109CF1"/>
<path d="M199.737 68.1799C198.402 91.5489 190.744 123.965 188.193 145.395C187.179 153.786 187.55 162.286 189.291 170.557C189.363 170.836 189.38 171.126 189.339 171.411C189.299 171.696 189.203 171.97 189.057 172.218C188.911 172.467 188.717 172.683 188.487 172.856C188.257 173.03 187.995 173.156 187.716 173.228C187.437 173.3 187.147 173.316 186.862 173.276C186.577 173.236 186.302 173.14 186.054 172.993C185.806 172.847 185.59 172.653 185.416 172.423C185.243 172.193 185.117 171.931 185.045 171.653C183.43 162.835 183.292 153.811 184.637 144.948C187.85 123.525 196.516 91.2309 198.555 68.0942C198.573 67.943 198.649 67.8047 198.767 67.7079C198.884 67.6111 199.035 67.5633 199.187 67.5743C199.339 67.5853 199.48 67.6544 199.583 67.7671C199.685 67.8798 199.74 68.0276 199.737 68.1799Z" fill="#313643"/>
<path d="M11.4472 62.5603L-33.1802 29.693L-45.8603 -8.32251C-45.9392 -8.55929 -42.7483 -6.09904 -108.841 -55.5229C-108.914 -55.577 -109.001 -55.6066 -109.092 -55.6074C-109.182 -55.6082 -109.27 -55.5801 -109.344 -55.5273C-109.417 -55.4744 -109.471 -55.3995 -109.499 -55.3135C-109.527 -55.2276 -109.526 -55.135 -109.498 -55.0493L-96.9777 -17.5118L-136.666 -18.7543C-136.757 -18.7573 -136.846 -18.7313 -136.92 -18.6802C-136.995 -18.629 -137.051 -18.5554 -137.081 -18.47C-137.11 -18.3846 -137.112 -18.292 -137.085 -18.2056C-137.059 -18.1193 -137.005 -18.0437 -136.933 -17.9899C-71.34 30.6199 -73.8995 28.8068 -73.6718 28.8136L-33.6875 30.3718L10.9443 63.2436C11.0349 63.3103 11.1483 63.3382 11.2595 63.3213C11.3708 63.3044 11.4707 63.244 11.5374 63.1534C11.6041 63.0628 11.632 62.9494 11.6151 62.8382C11.5982 62.727 11.5378 62.627 11.4472 62.5603V62.5603ZM-114.443 -2.36694L-76.0057 -1.27549L-55.7419 13.8807L-94.231 12.6156L-114.443 -2.36694ZM-67.3576 -23.4358L-55.2458 13.1884L-75.3157 -1.83249L-87.5809 -38.5604L-67.3576 -23.4358ZM-88.7806 -39.4466L-76.5289 -2.71647L-96.0215 -17.2953L-108.253 -54.0323L-88.7806 -39.4466ZM-93.0426 13.4928L-54.5648 14.7579L-34.885 29.4766L-73.5094 27.9724L-93.0426 13.4928Z" fill="#313643"/>
<path d="M128.513 299.692L116.598 300.718L115.574 288.805C115.564 288.693 115.511 288.589 115.425 288.516C115.338 288.444 115.227 288.408 115.115 288.418C115.003 288.428 114.899 288.481 114.827 288.567C114.754 288.653 114.719 288.765 114.728 288.877L115.754 300.79L103.841 301.816C103.733 301.827 103.634 301.879 103.563 301.961C103.493 302.043 103.456 302.148 103.46 302.256C103.465 302.364 103.511 302.466 103.588 302.542C103.666 302.617 103.769 302.66 103.877 302.662L115.829 301.636L116.855 313.549C116.864 313.662 116.918 313.765 117.004 313.838C117.09 313.91 117.201 313.946 117.314 313.936C117.426 313.927 117.53 313.873 117.602 313.787C117.675 313.701 117.71 313.589 117.7 313.477L116.674 301.564L128.588 300.538C128.7 300.528 128.803 300.474 128.876 300.388C128.948 300.301 128.983 300.19 128.973 300.078C128.963 299.966 128.909 299.862 128.823 299.79C128.737 299.717 128.625 299.682 128.513 299.692V299.692Z" fill="#313643"/>
<path d="M290.89 116.65L282.231 117.406C280.184 117.578 278.152 116.933 276.578 115.613C275.005 114.293 274.017 112.404 273.831 110.359C273.08 101.841 273.168 101.69 272.981 101.465C272.923 101.394 272.845 101.344 272.757 101.322C272.669 101.299 272.577 101.306 272.493 101.34C272.409 101.374 272.338 101.434 272.291 101.511C272.243 101.588 272.222 101.679 272.23 101.769L272.985 110.428C273.074 111.443 272.961 112.465 272.655 113.436C272.349 114.408 271.854 115.309 271.199 116.089C270.544 116.869 269.742 117.512 268.839 117.982C267.935 118.452 266.948 118.74 265.934 118.828L257.274 119.584C257.219 119.586 257.164 119.6 257.113 119.623C257.063 119.647 257.017 119.68 256.98 119.721C256.942 119.762 256.913 119.81 256.894 119.862C256.875 119.915 256.866 119.97 256.868 120.026C256.871 120.082 256.884 120.136 256.907 120.187C256.931 120.237 256.964 120.283 257.005 120.32C257.046 120.358 257.094 120.387 257.147 120.406C257.199 120.426 257.255 120.434 257.31 120.432L266.006 119.674C267.02 119.585 268.043 119.697 269.014 120.003C269.986 120.31 270.887 120.804 271.668 121.459C272.448 122.114 273.092 122.916 273.562 123.82C274.032 124.723 274.319 125.711 274.408 126.726L275.163 135.385C275.173 135.497 275.227 135.601 275.313 135.673C275.399 135.746 275.51 135.781 275.622 135.772C275.734 135.762 275.838 135.708 275.911 135.622C275.983 135.536 276.019 135.425 276.009 135.313L275.254 126.653C275.078 124.605 275.722 122.571 277.043 120.996C278.364 119.422 280.256 118.435 282.303 118.251L290.965 117.496C291.02 117.491 291.074 117.475 291.124 117.449C291.173 117.424 291.217 117.388 291.253 117.346C291.288 117.303 291.316 117.254 291.332 117.2C291.349 117.147 291.355 117.091 291.35 117.036C291.345 116.98 291.33 116.926 291.304 116.877C291.278 116.827 291.243 116.783 291.2 116.748C291.157 116.712 291.108 116.685 291.055 116.668C291.002 116.651 290.946 116.645 290.89 116.65V116.65ZM274.6 124.026C274.068 122.783 273.251 121.682 272.216 120.813C271.181 119.943 269.956 119.328 268.64 119.018C269.882 118.484 270.981 117.667 271.85 116.632C272.719 115.596 273.333 114.371 273.644 113.056C274.177 114.299 274.995 115.399 276.031 116.269C277.068 117.138 278.294 117.752 279.61 118.062C278.365 118.593 277.261 119.41 276.39 120.446C275.518 121.482 274.901 122.708 274.591 124.026H274.6Z" fill="#313643"/>
<path d="M71.6095 148.512C69.7569 146.788 68.598 144.447 68.351 141.929C68.3435 141.819 68.3791 141.711 68.4502 141.627C68.5214 141.542 68.6225 141.489 68.7322 141.478C68.8419 141.468 68.9514 141.5 69.0377 141.568C69.124 141.637 69.1802 141.736 69.1943 141.846C69.4224 144.158 70.4864 146.308 72.1868 147.891C72.264 147.969 72.3082 148.074 72.3099 148.183C72.3117 148.293 72.271 148.399 72.1964 148.479C72.1217 148.559 72.0189 148.608 71.9095 148.614C71.8001 148.62 71.6926 148.583 71.6095 148.512Z" fill="#313643"/>
<path d="M106.342 145.303L99.2676 146.656C99.1629 146.674 99.0691 146.732 99.0049 146.817C98.9406 146.902 98.9106 147.008 98.9208 147.114C98.9311 147.219 98.9807 147.318 99.06 147.389C99.1393 147.46 99.2424 147.498 99.3488 147.497C99.5743 147.497 101.721 147.046 106.502 146.128C106.599 146.095 106.682 146.028 106.734 145.94C106.786 145.851 106.804 145.746 106.784 145.645C106.764 145.544 106.709 145.453 106.627 145.39C106.546 145.327 106.444 145.296 106.342 145.303Z" fill="#313643"/>
<path d="M87.5662 148.911L80.4922 150.264C80.3876 150.283 80.294 150.34 80.2298 150.425C80.1656 150.509 80.1355 150.615 80.1454 150.721C80.1553 150.827 80.2046 150.925 80.2834 150.996C80.3622 151.067 80.4649 151.106 80.5711 151.105C80.7966 151.105 82.9479 150.654 87.7263 149.736C87.824 149.704 87.9064 149.637 87.9583 149.548C88.0103 149.459 88.0281 149.354 88.0085 149.253C87.9889 149.152 87.9332 149.062 87.8518 148.999C87.7705 148.936 87.6689 148.905 87.5662 148.911V148.911Z" fill="#313643"/>
<path d="M143.893 138.086L136.819 139.44C136.714 139.458 136.621 139.516 136.556 139.6C136.492 139.685 136.462 139.791 136.472 139.896C136.482 140.002 136.531 140.1 136.61 140.171C136.689 140.243 136.791 140.282 136.898 140.281C137.123 140.281 139.272 139.83 144.053 138.912C144.151 138.879 144.233 138.812 144.285 138.723C144.337 138.635 144.355 138.53 144.335 138.429C144.315 138.328 144.26 138.237 144.178 138.174C144.097 138.111 143.995 138.08 143.893 138.086Z" fill="#313643"/>
<path d="M125.117 141.694L118.043 143.048C117.941 143.069 117.851 143.127 117.789 143.211C117.727 143.295 117.698 143.398 117.708 143.502C117.717 143.606 117.765 143.703 117.842 143.773C117.918 143.844 118.018 143.884 118.122 143.886C118.348 143.886 120.497 143.435 125.277 142.518C125.373 142.484 125.453 142.416 125.504 142.328C125.554 142.24 125.571 142.137 125.552 142.037C125.532 141.937 125.478 141.848 125.398 141.785C125.318 141.722 125.219 141.69 125.117 141.694V141.694Z" fill="#313643"/>
<path d="M154.834 139.365C152.754 138.184 150.33 137.758 147.972 138.159C147.864 138.176 147.753 138.15 147.663 138.087C147.573 138.024 147.511 137.928 147.49 137.82C147.47 137.712 147.492 137.601 147.552 137.508C147.612 137.416 147.705 137.351 147.812 137.327C150.297 136.848 152.87 137.292 155.051 138.576C155.131 138.623 155.193 138.696 155.228 138.782C155.263 138.868 155.269 138.964 155.244 139.054C155.22 139.143 155.166 139.223 155.092 139.279C155.018 139.335 154.927 139.366 154.834 139.365Z" fill="#313643"/>
<path d="M64.4452 210.406C63.9347 212.685 62.7737 214.767 61.1032 216.4C61.0293 216.479 60.9889 216.584 60.9903 216.693C60.9916 216.802 61.0346 216.906 61.1105 216.984C61.1863 217.061 61.2891 217.107 61.3977 217.111C61.5063 217.116 61.6124 217.078 61.694 217.006C63.4829 215.259 64.7261 213.031 65.2728 210.591C65.2849 210.536 65.2863 210.48 65.2767 210.425C65.2671 210.37 65.2468 210.318 65.217 210.271C65.1567 210.176 65.0612 210.109 64.9514 210.084C64.8417 210.06 64.7267 210.08 64.6318 210.14C64.5368 210.201 64.4697 210.296 64.4452 210.406Z" fill="#313643"/>
<path d="M12.5093 207.882L5.62691 205.738C5.51956 205.704 5.40328 205.715 5.30369 205.767C5.2041 205.819 5.12933 205.909 5.09584 206.016C5.06235 206.124 5.07288 206.24 5.12511 206.339C5.17733 206.439 5.26699 206.514 5.37435 206.547C11.2781 208.399 12.1395 208.719 12.3763 208.719C12.4849 208.732 12.5941 208.702 12.6812 208.636C12.7683 208.569 12.8266 208.472 12.8437 208.364C12.8609 208.256 12.8357 208.146 12.7734 208.056C12.7111 207.966 12.6164 207.904 12.5093 207.882V207.882Z" fill="#313643"/>
<path d="M30.7549 213.592L23.8792 211.441C23.8261 211.424 23.7702 211.418 23.7147 211.423C23.6592 211.428 23.6053 211.444 23.556 211.47C23.4564 211.522 23.3817 211.612 23.3482 211.719C23.3147 211.827 23.3252 211.943 23.3774 212.043C23.4297 212.142 23.5193 212.217 23.6267 212.25C29.5326 214.1 30.3918 214.422 30.6286 214.422C30.7306 214.423 30.8296 214.387 30.9074 214.321C30.9851 214.255 31.0363 214.163 31.0517 214.062C31.067 213.961 31.0455 213.858 30.9909 213.772C30.9364 213.685 30.8526 213.622 30.7549 213.592V213.592Z" fill="#313643"/>
<path d="M50.5136 219.674C49.8014 219.537 49.0993 219.351 48.4119 219.12L42.1271 217.151C42.0197 217.117 41.9034 217.127 41.8036 217.179C41.7038 217.231 41.6287 217.321 41.5949 217.428C41.5611 217.536 41.5713 217.652 41.6234 217.752C41.6754 217.852 41.7649 217.927 41.8723 217.96C45.681 219.156 47.3949 219.713 48.1864 219.958C48.9256 220.192 49.6788 220.378 50.4414 220.515C50.547 220.515 50.6486 220.474 50.7261 220.403C50.8036 220.331 50.8516 220.233 50.8606 220.128C50.8697 220.023 50.8391 219.918 50.7749 219.834C50.7107 219.75 50.6175 219.693 50.5136 219.674Z" fill="#313643"/>
<path d="M40.968 80.7C41.017 81.2643 40.8399 81.8249 40.4756 82.2586C40.1113 82.6923 39.5896 82.9635 39.0253 83.0126C38.461 83.0616 37.9003 82.8845 37.4667 82.5201C37.033 82.1558 36.7618 81.6341 36.7127 81.0698C36.6884 80.7904 36.7194 80.509 36.8039 80.2415C36.8884 79.9741 37.0247 79.726 37.2051 79.5112C37.3855 79.2965 37.6065 79.1194 37.8553 78.99C38.1042 78.8607 38.3761 78.7816 38.6555 78.7573C38.9349 78.733 39.2163 78.764 39.4837 78.8485C39.7512 78.933 39.9993 79.0693 40.2141 79.2497C40.4288 79.4301 40.6059 79.651 40.7353 79.8999C40.8646 80.1487 40.9437 80.4206 40.968 80.7V80.7Z" fill="#313643"/>
<path d="M168.969 52.9359C169.001 53.4906 168.816 54.0361 168.453 54.4565C168.089 54.877 167.577 55.1393 167.023 55.1877C166.47 55.2361 165.919 55.0669 165.488 54.7159C165.057 54.3649 164.78 53.8599 164.716 53.308C164.684 52.7533 164.869 52.2078 165.232 51.7874C165.595 51.3669 166.108 51.1047 166.662 51.0562C167.215 51.0078 167.766 51.177 168.197 51.528C168.627 51.879 168.904 52.384 168.969 52.9359V52.9359Z" fill="#313643"/>
<path d="M255.1 244.892L232.974 209.274C232.925 209.196 232.852 209.136 232.766 209.104C232.68 209.071 232.586 209.067 232.498 209.093C232.41 209.118 232.332 209.171 232.277 209.245C232.221 209.318 232.191 209.407 232.191 209.499V227.702L200.343 203.85C212.524 183.102 219.318 159.635 220.105 135.589C220.893 111.542 215.65 87.6808 204.853 66.1798C204.803 66.0793 204.714 66.003 204.608 65.9677C204.501 65.9324 204.384 65.941 204.284 65.9915C204.184 66.042 204.107 66.1304 204.072 66.2372C204.037 66.344 204.045 66.4604 204.096 66.5609C219.897 98.0269 223.552 134.212 214.36 168.202C205.169 202.192 183.777 231.604 154.27 250.818C154.176 250.88 154.11 250.977 154.087 251.087C154.064 251.197 154.086 251.312 154.148 251.406C154.209 251.5 154.306 251.566 154.416 251.589C154.526 251.612 154.641 251.59 154.735 251.529C173.178 239.534 188.629 223.475 199.904 204.583L231.716 228.41L213.346 234.645C213.259 234.674 213.183 234.731 213.131 234.807C213.079 234.882 213.053 234.973 213.056 235.065C213.06 235.157 213.094 235.245 213.152 235.316C213.211 235.387 213.29 235.438 213.38 235.459C257.594 246.184 254.821 245.722 255.076 245.368C255.127 245.3 255.156 245.219 255.161 245.134C255.165 245.049 255.144 244.965 255.1 244.892V244.892Z" fill="#313643"/>
<path d="M159.807 155.225L160.152 148.029C160.151 147.92 160.109 147.816 160.034 147.738C159.958 147.66 159.856 147.614 159.748 147.608C159.64 147.603 159.534 147.64 159.451 147.71C159.369 147.781 159.317 147.88 159.306 147.988L158.961 155.184C158.962 155.293 159.004 155.397 159.079 155.475C159.154 155.553 159.256 155.599 159.365 155.605C159.473 155.61 159.579 155.573 159.661 155.503C159.743 155.432 159.795 155.333 159.807 155.225V155.225Z" fill="#313643"/>
<path d="M156.625 212.918C156.735 212.919 156.841 212.878 156.922 212.803C157.003 212.728 157.051 212.624 157.058 212.514L157.403 205.318C157.407 205.262 157.399 205.206 157.381 205.152C157.363 205.099 157.334 205.05 157.296 205.008C157.259 204.966 157.213 204.931 157.162 204.907C157.111 204.883 157.055 204.87 156.999 204.867C156.886 204.862 156.775 204.901 156.691 204.977C156.606 205.052 156.555 205.158 156.548 205.271L156.201 212.467C156.198 212.525 156.207 212.582 156.227 212.636C156.247 212.691 156.278 212.74 156.317 212.782C156.357 212.824 156.404 212.858 156.457 212.881C156.51 212.905 156.567 212.917 156.625 212.918Z" fill="#313643"/>
<path d="M157.54 193.822C157.651 193.823 157.757 193.782 157.838 193.707C157.919 193.632 157.968 193.529 157.975 193.419L158.32 186.223C158.326 186.11 158.286 186 158.211 185.917C158.135 185.834 158.029 185.784 157.917 185.779C157.804 185.773 157.694 185.813 157.611 185.888C157.528 185.964 157.478 186.07 157.473 186.182L157.128 193.378C157.125 193.434 157.134 193.49 157.154 193.543C157.174 193.596 157.204 193.644 157.242 193.686C157.28 193.727 157.326 193.76 157.377 193.784C157.429 193.807 157.484 193.82 157.54 193.822Z" fill="#313643"/>
<path d="M158.458 174.724C158.568 174.725 158.674 174.683 158.754 174.608C158.835 174.533 158.884 174.43 158.891 174.321L159.236 167.125C159.241 167.012 159.202 166.902 159.126 166.819C159.051 166.736 158.945 166.686 158.832 166.681C158.72 166.675 158.61 166.715 158.527 166.79C158.443 166.866 158.394 166.972 158.388 167.084L158.043 174.28C158.04 174.394 158.081 174.505 158.159 174.588C158.237 174.671 158.344 174.72 158.458 174.724V174.724Z" fill="#313643"/>
<path d="M67.9428 194.913L66.3642 201.94C66.3469 202.047 66.3708 202.156 66.4311 202.245C66.4914 202.335 66.5836 202.398 66.6889 202.422C66.7942 202.446 66.9046 202.429 66.9976 202.374C67.0906 202.319 67.1593 202.231 67.1896 202.127L68.7681 195.101C68.7855 194.994 68.7616 194.885 68.7012 194.795C68.6409 194.706 68.5487 194.643 68.4434 194.619C68.3382 194.595 68.2278 194.612 68.1347 194.667C68.0417 194.722 67.973 194.81 67.9428 194.913Z" fill="#313643"/>
<path d="M202.594 60.6934C202.788 60.6596 202.982 60.6213 203.173 60.5807C206.899 59.7824 206.513 54.4695 202.991 53.4773C203.654 53.0608 204.174 52.4499 204.478 51.7278C204.782 51.0057 204.856 50.2074 204.691 49.4415C204.525 48.6757 204.128 47.9794 203.552 47.4475C202.977 46.9155 202.252 46.5738 201.475 46.4686C202.167 45.9428 202.659 45.1966 202.869 44.3534C203.079 43.5103 202.995 42.6207 202.63 41.8319C202.266 41.043 201.644 40.402 200.866 40.015C200.088 39.628 199.201 39.5181 198.352 39.7035C198.352 39.7035 195.195 40.2763 194.171 40.4815C193.287 37.8837 191.691 37.7438 187.32 38.2264C181.617 38.8533 180.742 38.9503 179.265 42.4682C177.053 47.7405 174.918 49.1634 173.253 49.7114C172.829 48.7778 172.378 47.8367 171.9 46.8881C171.859 46.8071 171.793 46.7416 171.712 46.701C171.631 46.6604 171.539 46.6469 171.449 46.6625C170.662 46.8069 92.6198 61.388 83.311 62.2427C76.9968 62.8199 73.8149 57.2139 72.8971 50.9674C74.1855 50.9913 75.4605 50.7022 76.6126 50.1248C77.7646 49.5474 78.7593 48.699 79.5112 47.6525C81.3581 44.6826 80.8191 39.8771 77.9124 33.3691C73.9412 20.1477 73.5195 9.14536 64.9887 9.70686C56.397 10.2751 40.9657 26.9016 47.2979 36.2939C52.6829 44.297 59.9261 48.9582 60.8011 55.349C60.3501 55.3873 59.8697 55.4302 59.3624 55.4798C58.8911 52.1897 57.4749 52.0453 53.3188 52.0972C48.2089 52.1626 47.4219 52.1716 45.8005 55.1708C44.8321 57.2889 43.3049 59.1031 41.3829 60.4183C40.4076 58.6011 39.3356 56.8374 38.1717 55.1347C37.7838 54.6409 37.7049 54.6702 37.2697 54.7536C35.5739 55.0761 27.4602 57.2973 -12.851 69.9459C-23.9819 73.439 -29.3759 80.3867 -28.5596 89.6775C-28.3514 92.0742 -27.6727 94.4064 -26.5623 96.5405C-25.452 98.6747 -23.9318 100.569 -22.0887 102.115C-20.2456 103.661 -18.1157 104.829 -15.821 105.551C-13.5262 106.273 -11.1116 106.536 -8.7152 106.324L46.2628 102.116L51.835 125.118C45.5412 132.404 42.0977 151.689 51.1224 164.777L44.8647 196.668C-4.34944 179.803 -2.14174 180.468 -2.43941 180.583C-4.34147 182.469 -6.09439 184.499 -7.68239 186.656C-13.3561 183.855 -19.2466 181.518 -25.2965 179.665C-25.3966 179.635 -25.5042 179.643 -25.5987 179.688C-38.227 185.569 -57.0408 190.834 -77.3498 205.145C-77.4168 205.192 -77.4686 205.258 -77.499 205.334C-77.5295 205.41 -77.5372 205.494 -77.5212 205.574C-77.5052 205.654 -77.4662 205.728 -77.409 205.787C-77.3517 205.846 -77.2787 205.887 -77.1987 205.905C-64.2337 208.507 -51.0326 209.749 -37.8098 209.61C-30.8717 209.357 -23.9247 209.708 -17.0476 210.661C-17.4851 213.623 -17.7344 216.61 -17.794 219.604C-17.6226 219.83 -20.6241 218.637 49.7649 245.271C53.0071 246.496 56.4715 247.022 59.9312 246.815C63.3909 246.608 66.7678 245.673 69.841 244.071C72.9143 242.468 75.6144 240.235 77.7646 237.517C79.9149 234.799 81.4668 231.657 82.3187 228.297L95.7498 175.471C110.661 172.463 125.263 168.085 139.369 162.391C138.956 169.709 137.114 210.483 136.386 223.3C136.382 223.391 136.406 223.48 136.456 223.556C136.506 223.632 136.578 223.69 136.663 223.722C138.629 224.45 140.603 225.082 142.585 225.618C141.515 232.538 141.035 239.536 141.148 246.536C141.148 247.021 141.101 246.908 141.478 247.316C142.107 247.993 143.958 249.971 149.37 256.434C159.387 268.385 168.252 278.398 181.597 288.34C181.663 288.389 181.742 288.417 181.824 288.422C181.905 288.427 181.987 288.408 182.058 288.368C182.13 288.328 182.188 288.268 182.226 288.195C182.264 288.123 182.281 288.041 182.274 287.959C180.694 274.83 177.758 261.899 173.513 249.375C171.325 242.297 168.306 234.607 167.85 227.226C169.869 226.945 171.886 226.566 173.901 226.087C173.984 226.067 174.06 226.022 174.117 225.958C174.175 225.894 174.212 225.814 174.223 225.729C177.509 199.818 181.439 165.785 182.716 132.298C182.85 128.928 182.239 125.569 180.926 122.463C179.613 119.356 177.631 116.577 175.121 114.324C172.611 112.072 169.634 110.401 166.404 109.431C163.174 108.461 159.769 108.215 156.433 108.712C137.442 111.563 118.621 115.456 100.057 120.373C100.057 120.373 99.2 92.237 99.1549 90.309C180.397 75.7278 176.988 76.4359 177.191 76.1901C177.484 74.8477 177.672 73.4846 177.755 72.113C181.814 71.3801 190.953 70.0609 196.852 69.0146C199.108 68.6177 202.265 67.887 203.016 67.754C206.777 67.0797 206.315 61.494 202.594 60.6934ZM-67.3757 206.85C-70.4696 206.399 -73.3268 205.894 -76.0712 205.298C-56.2403 191.531 -37.8617 186.313 -25.3867 180.536C-23.0257 181.257 -20.685 182.055 -18.4209 182.912C-29.4278 187.682 -48.8325 194.07 -67.3757 206.85ZM203.004 59.7508C200.781 60.2289 198.23 60.2898 193.799 60.7205C189.478 61.1422 188.387 56.1337 192.527 55.4347C194.891 55.0355 201.11 54.1696 201.805 54.1696C205.397 54.1696 206.1 59.0856 202.993 59.7508H203.004ZM202.021 52.9316C199.741 53.4818 197.229 53.6081 192.694 54.1538C192.121 54.2956 191.516 54.2407 190.978 53.9978C190.439 53.7549 189.998 53.3381 189.724 52.8143C189.514 52.3642 189.416 51.8693 189.44 51.3729C189.465 50.8764 189.61 50.3935 189.864 49.9662C192.57 53.9937 196.002 52.582 195.66 49.903L195.412 47.9276C196.113 47.8307 199.186 47.4586 200.104 47.3188C204.296 46.6738 205.271 52.1468 202.01 52.9316H202.021ZM198.519 40.5401C202.38 39.8275 203.451 45.172 200.409 46.0153C198.726 46.4364 197.016 46.7438 195.292 46.9354C195.103 45.0418 194.812 43.1599 194.419 41.2978C195.547 41.0813 196.178 40.9708 198.508 40.5401H198.519ZM60.4606 43.9678C59.9036 42.9575 59.5585 42.7365 59.333 42.6576C51.5622 39.8501 53.6413 32.9609 57.7229 35.5091C59.1391 36.3931 60.0321 36.6366 60.6184 36.3141C61.2679 35.9511 61.2589 35.1032 61.1799 34.4109C60.3884 27.321 66.6169 13.4187 75.4363 30.2323C80.2012 39.3652 83.0043 49.4836 72.7799 50.1263C71.1104 50.2086 69.4373 50.0783 67.8008 49.7384C67.2302 49.6031 67.0408 50.1331 67.3069 50.4149L73.0392 55.2362C73.7974 57.7668 75.3366 59.9927 77.4365 61.5955C74.6369 63.6398 71.1602 64.5332 67.7218 64.0918C67.6287 63.477 67.3731 62.8983 66.9814 62.4154C66.5897 61.9326 66.0762 61.5631 65.4938 61.3452C66.0959 60.8889 66.5317 60.2477 66.7344 59.5199C66.9371 58.7922 66.8955 58.0181 66.616 57.3163C66.3365 56.6144 65.8345 56.0236 65.187 55.6345C64.5395 55.2453 63.7822 55.0793 63.0313 55.1618L61.8001 55.2656C62.4901 52.2686 62.1045 49.0529 60.4493 43.9678H60.4606ZM46.5582 55.5677C47.9428 53.006 48.2495 53.0037 53.4113 52.9383C57.4704 52.8932 58.2506 52.9767 58.5979 55.9872C58.6147 56.0943 58.6695 56.1918 58.7524 56.2618C58.8352 56.3318 58.9405 56.3696 59.0489 56.3683C60.1584 56.2533 63.108 56.0052 63.108 56.0052C66.5131 55.7143 66.9912 60.4296 64.2964 60.9032C63.9514 60.9618 63.6019 61.0137 63.2388 61.0542C62.7089 61.1151 62.6795 62.0149 63.2907 61.9766C63.3493 61.9766 63.6379 61.9766 63.8296 61.954C67.5098 61.742 67.9315 66.5678 65.027 66.976C63.8995 67.1271 63.3831 67.1045 63.1035 67.1451C62.9988 67.1598 62.9033 67.2131 62.8359 67.2946C62.7684 67.376 62.7339 67.4797 62.7389 67.5853C62.744 67.691 62.7884 67.7909 62.8633 67.8655C62.9383 67.9401 63.0384 67.9839 63.1441 67.9885L64.0777 67.9637C67.706 67.8442 68.0105 72.582 65.1601 72.9113C64.6504 72.9699 64.1385 72.9992 63.5951 73.0173C63.4797 73.0158 63.3684 73.0602 63.2857 73.1408C63.203 73.2213 63.1557 73.3314 63.1542 73.4469C63.1527 73.5623 63.1971 73.6736 63.2777 73.7562C63.3583 73.8389 63.4684 73.8862 63.5838 73.8877C67.0431 73.8877 67.2798 78.4204 64.5174 78.6616C60.9093 78.9796 56.5796 79.5501 50.1731 79.8884C48.793 79.9628 47.4129 80.0508 46.0734 80.1364C46.1706 73.5636 44.7019 67.0621 41.7888 61.1693C43.8619 59.7775 45.5088 57.8386 46.5469 55.5677H46.5582ZM37.4974 55.6399C43.7125 64.3008 46.3466 75.0255 44.8511 85.5801L31.6073 89.655C33.1587 77.6649 30.5226 67.6187 23.7687 59.7824L37.4974 55.6399ZM49.9363 113.622C51.4066 105.456 51.9433 102.646 52.0876 101.632C52.2049 100.817 52.029 100.829 51.5013 100.822C49.4221 100.797 39.3759 101.451 -8.7806 105.472C-13.3926 105.867 -17.9734 104.419 -21.5196 101.444C-25.0658 98.4685 -27.2883 94.2092 -27.7004 89.5986C-28.4762 80.7476 -23.2512 74.2282 -12.5916 70.7509L22.8667 60.062C29.7108 67.8329 32.3379 77.8769 30.703 89.9414L-3.70448 100.54C-3.80045 100.571 -3.88231 100.635 -3.93537 100.721C-3.98843 100.806 -4.00922 100.908 -3.99402 101.008C-3.97882 101.107 -3.92861 101.198 -3.85241 101.264C-3.77621 101.33 -3.67899 101.367 -3.5782 101.368C-3.38201 101.368 45.3563 86.331 45.4352 86.2927C45.4825 86.2668 45.5243 86.2317 45.5579 86.1895C45.5916 86.1473 45.6166 86.0988 45.6314 86.0469C45.8656 84.3762 46.0041 82.6934 46.0463 81.0069C56.6157 80.3304 59.9848 80.0868 61.1912 79.9605C64.4092 79.6291 65.9268 79.602 66.7815 78.2197C67.2098 77.4718 67.3427 76.5907 67.154 75.7498C66.9654 74.9089 66.4689 74.169 65.7622 73.6757C66.3686 73.445 66.8947 73.0427 67.2763 72.5181C67.6579 71.9934 67.8786 71.369 67.9113 70.721C67.9441 70.073 67.7875 69.4295 67.4608 68.869C67.134 68.3085 66.6511 67.8553 66.0711 67.5646C66.5611 67.326 66.9769 66.9586 67.274 66.5018C67.5712 66.0449 67.7384 65.5159 67.7579 64.9713C70.6559 65.3275 73.5933 64.7835 76.1715 63.413C84.231 84.085 85.3089 100.01 85.8907 120.103L52.6559 124.917L49.9363 113.622ZM81.5069 228.097C80.6855 231.341 79.1879 234.376 77.1122 237.001C75.0366 239.626 72.4296 241.784 69.4622 243.331C66.4948 244.879 63.2339 245.783 59.8931 245.982C56.5522 246.182 53.2068 245.674 50.0761 244.491L-17.0002 219.095C-16.1839 203.749 -12.5533 192.21 -2.14401 181.453C48.493 198.806 45.1488 197.739 45.4014 197.593C45.654 197.446 45.1759 199.498 51.8035 165.722C56.0092 171.151 62.058 174.851 68.8065 176.122C69.014 176.168 70.1031 176.431 72.0064 176.896L70.5654 183.282C70.5406 183.392 70.5604 183.507 70.6205 183.602C70.6805 183.697 70.7759 183.765 70.8856 183.79C70.9954 183.814 71.1105 183.795 71.2057 183.735C71.3008 183.675 71.3682 183.579 71.393 183.469L72.8272 177.099C76.8683 178.084 83.8161 179.785 93.1993 182.074L81.5069 228.097ZM179.649 275.904C180.325 279.361 180.943 283.345 181.336 287.109C161.992 272.487 151.452 256.77 142.01 246.66C141.944 243.571 142.01 240.45 142.197 237.363C152.672 249.071 161.676 262.114 179.642 275.897L179.649 275.904ZM99.2113 120.617C96.1512 121.433 93.3369 122.211 90.6173 122.996C90.5179 123.033 90.436 123.106 90.3877 123.2C90.3395 123.295 90.3285 123.404 90.3568 123.506C90.3851 123.609 90.4507 123.696 90.5407 123.753C90.6307 123.809 90.7385 123.829 90.8428 123.81C112.416 117.655 134.364 112.899 156.55 109.572C159.762 109.093 163.041 109.329 166.151 110.263C169.261 111.197 172.127 112.805 174.545 114.974C176.962 117.143 178.871 119.819 180.135 122.81C181.399 125.801 181.988 129.035 181.859 132.28C180.594 165.609 176.686 199.494 173.409 225.35C167.827 226.662 162.09 227.2 156.361 226.949L156.483 224.417C156.487 224.36 156.479 224.304 156.461 224.25C156.443 224.197 156.414 224.148 156.376 224.106C156.339 224.064 156.293 224.029 156.242 224.005C156.191 223.981 156.135 223.968 156.079 223.965C155.966 223.961 155.856 224 155.771 224.075C155.687 224.151 155.636 224.256 155.628 224.369L155.506 226.897C149.262 226.513 143.108 225.216 137.24 223.048C137.955 210.338 139.804 169.463 140.226 162.064C142.849 161.036 144.95 160.193 146.628 159.501C146.68 159.479 146.726 159.448 146.766 159.409C146.805 159.37 146.837 159.323 146.858 159.272C146.88 159.22 146.891 159.165 146.891 159.109C146.891 159.054 146.88 158.998 146.859 158.947C146.838 158.895 146.807 158.849 146.768 158.809C146.728 158.769 146.682 158.738 146.63 158.717C146.579 158.695 146.524 158.684 146.468 158.684C146.412 158.684 146.357 158.695 146.306 158.716C126.461 166.908 90.6827 179.785 69.5507 175.403C62.4588 174.2 56.1233 170.26 51.9094 164.43C43.3403 152.174 46.2312 133.053 52.3762 125.776L66.5424 123.724L67.2189 130.453C67.2324 130.563 67.2884 130.664 67.3751 130.733C67.4618 130.802 67.5722 130.835 67.6826 130.824C67.7931 130.813 67.8947 130.759 67.9656 130.673C68.0366 130.588 68.0713 130.478 68.0623 130.368L67.3858 123.602L99.1188 119.004L99.2113 120.617ZM162.704 78.0595L114.715 86.6716L98.6565 84.0873C98.595 84.0769 98.532 84.0803 98.4719 84.0972C98.4119 84.1142 98.3564 84.1442 98.3094 84.1852C98.2623 84.2262 98.225 84.2771 98.2 84.3343C98.1751 84.3914 98.1631 84.4534 98.1649 84.5157L99.0918 118.166L86.7364 119.956C86.15 99.7847 85.0541 83.7851 76.9179 62.9643C77.3662 62.6919 77.7964 62.3906 78.2055 62.0623C79.7877 62.9161 81.5905 63.2729 83.3786 63.086C90.2362 62.4614 133.98 54.3726 157.188 50.1353C161.675 58.719 163.589 68.415 162.7 78.0595H162.704ZM176.483 75.579L163.575 77.8949C164.417 68.257 162.507 58.5779 158.068 49.982C165.059 48.7056 170.02 47.7923 171.294 47.5578C176.273 57.4913 177.973 66.6671 176.478 75.588L176.483 75.579ZM177.804 71.2538C178.05 64.0971 176.61 56.9829 173.601 50.4849C176.208 49.5828 178.21 47.1812 180.052 42.7906C181.336 39.7328 181.678 39.6967 187.494 39.0563C191.702 38.5917 192.906 38.4609 193.653 41.7466C194.02 43.3589 194.252 45.5598 194.814 50.0023C195.127 52.4941 190.949 53.0443 188.642 45.0412C188.608 44.9377 188.535 44.8514 188.439 44.8C188.343 44.7486 188.231 44.7361 188.126 44.7651C188.021 44.7941 187.932 44.8623 187.876 44.9557C187.82 45.0491 187.802 45.1604 187.826 45.2667C189.781 52.2979 187.345 57.029 183.315 59.1713C183.22 59.2261 183.15 59.3158 183.12 59.4213C183.089 59.5269 183.101 59.6401 183.153 59.7372C183.204 59.8342 183.291 59.9075 183.396 59.9416C183.5 59.9757 183.614 59.968 183.712 59.92C185.01 59.239 186.149 58.2906 187.054 57.1373C187.959 55.9841 188.609 54.6521 188.962 53.2292C189.179 53.6637 189.493 54.043 189.878 54.3384C190.264 54.6338 190.712 54.8375 191.188 54.9341C187.726 56.3976 188.671 61.1422 192.681 61.5639C187.458 62.3238 188.687 68.7259 193.91 68.3651C194.942 68.2929 195.865 68.2411 196.704 68.196C191.152 69.2311 183.622 70.221 177.8 71.2628L177.804 71.2538ZM202.795 66.8272C200.598 67.2308 198.221 67.2128 193.862 67.5037C189.686 67.7878 188.746 62.9552 192.748 62.3982C195.885 61.963 198.075 61.7601 201.2 61.4534C205.178 61.0768 205.931 66.2566 202.795 66.8272Z" fill="#313643"/>
<path d="M188.737 131.506L60.7582 79.9695C60.1764 80.0304 59.5653 80.0913 58.9294 80.1476C192.313 133.865 188.342 132.323 188.567 132.323C188.666 132.325 188.763 132.292 188.84 132.23C188.918 132.169 188.971 132.082 188.991 131.985C189.012 131.888 188.997 131.787 188.95 131.699C188.904 131.612 188.828 131.544 188.737 131.506Z" fill="#313643"/>
<path d="M191.199 54.9342C190.779 54.8441 190.379 54.675 190.022 54.4358L66.2583 67.6526C66.5878 67.8543 66.88 68.1114 67.122 68.4126C200.655 54.1517 190.119 55.3897 191.199 54.9342Z" fill="#313643"/>
<path d="M217.619 51.603L209.952 48.7481C209.885 48.7232 209.813 48.7155 209.742 48.726C209.671 48.7364 209.605 48.7645 209.548 48.8077C209.491 48.8509 209.446 48.9078 209.417 48.973C209.388 49.0383 209.375 49.1099 209.382 49.1811L209.659 52.3382L203.739 52.9696C202.797 53.8288 202.65 53.177 203.805 53.8152L209.731 53.1816L209.975 55.962C209.984 56.0677 210.033 56.1659 210.112 56.2373C210.19 56.3087 210.292 56.3481 210.399 56.3476C212.898 55.1652 215.326 53.8377 217.671 52.372C217.742 52.3333 217.801 52.2749 217.84 52.2038C217.879 52.1327 217.897 52.0518 217.892 51.9709C217.886 51.8899 217.858 51.8122 217.809 51.747C217.761 51.6818 217.695 51.6318 217.619 51.603Z" fill="#313643"/>
<path d="M160.066 -28.7619C72.9648 43.8257 60.7402 53.8043 59.3286 55.2069L59.3624 55.4798C59.6803 55.4482 60.0389 55.4144 60.323 55.3896L160.609 -28.1102C160.652 -28.1459 160.688 -28.1897 160.713 -28.239C160.739 -28.2884 160.755 -28.3423 160.76 -28.3978C160.765 -28.4533 160.759 -28.5092 160.743 -28.5624C160.726 -28.6156 160.699 -28.665 160.664 -28.7078C160.628 -28.7506 160.584 -28.7859 160.535 -28.8118C160.485 -28.8377 160.431 -28.8536 160.376 -28.8586C160.32 -28.8636 160.265 -28.8577 160.211 -28.8411C160.158 -28.8245 160.109 -28.7976 160.066 -28.7619V-28.7619Z" fill="#313643"/>
</g>
<defs>
<clipPath id="clip0_354_6179">
<rect width="1061" height="747.841" fill="white"/>
</clipPath>
</defs>
</svg>
