<svg width="167" height="63" viewBox="0 0 167 63" fill="none" xmlns="http://www.w3.org/2000/svg">
<path fill-rule="evenodd" clip-rule="evenodd" d="M11.9266 8.14006C11.9266 5.43766 15.0001 3.8191 17.3085 5.30582L35.7778 16.806C37.8691 18.153 37.8582 21.1555 35.7571 22.4878L17.2877 33.8279C14.9779 35.2925 11.9266 33.6718 11.9266 30.9804V8.14006ZM18.0112 1.99727C13.8796 -0.63884 8.40473 2.25922 8.40473 7.08235V31.9324C8.40473 36.7361 13.8402 39.6378 17.974 37.041L37.5997 24.7129C41.3885 22.3329 41.4082 16.9255 37.6368 14.5192L18.0112 1.99727Z" fill="#109CF1"/>
<path fill-rule="evenodd" clip-rule="evenodd" d="M8.40473 7.08235C8.40473 2.25922 13.8796 -0.63884 18.0112 1.99727L37.6368 14.5192C41.4082 16.9255 41.3885 22.3329 37.5997 24.7129L17.974 37.041C13.8402 39.6378 8.40473 36.7361 8.40473 31.9324V7.08235ZM11.9266 8.14006C11.9266 5.43766 15.0001 3.8191 17.3085 5.30582L35.7778 16.806C37.8691 18.153 37.8582 21.1555 35.7571 22.4878L17.2877 33.8279C14.9779 35.2925 11.9266 33.6718 11.9266 30.9804V8.14006Z" fill="#109CF1"/>
<path d="M17.3085 5.30582C15.0001 3.8191 11.9266 5.43766 11.9266 8.14006V30.9804C11.9266 33.6718 14.9779 35.2925 17.2877 33.8279L35.7571 22.4878C37.8582 21.1555 37.8691 18.153 35.7778 16.806L17.3085 5.30582ZM8.40473 7.08235C8.40473 2.25922 13.8796 -0.63884 18.0112 1.99727L37.6368 14.5192C41.4082 16.9255 41.3885 22.3329 37.5997 24.7129L17.974 37.041C13.8402 39.6378 8.40473 36.7361 8.40473 31.9324V7.08235Z" stroke="#109CF1" stroke-width="1.02392"/>
<path fill-rule="evenodd" clip-rule="evenodd" d="M1.13489 30.4631V61.9998C7.81597 61.4537 21.1781 57.6226 21.1781 46.6666V15.4883C13.3963 15.4883 1.13489 23.0909 1.13489 30.4631ZM4.76981 30.8727V57.3666C8.6351 56.5816 17.1848 53.3426 17.1848 46.6666V19.8143C13.3195 21.2649 4.76981 25.5073 4.76981 30.8727Z" fill="#334D6E"/>
<path d="M21.1781 46.6666C21.1781 57.6226 7.81597 61.4537 1.13489 61.9998V30.4631C1.13489 23.0909 13.3963 15.4883 21.1781 15.4883M21.1781 46.6666C21.1781 35.7107 21.1781 21.3161 21.1781 15.4883M21.1781 46.6666V15.4883M17.1848 46.6666C17.1848 53.3426 8.6351 56.5816 4.76981 57.3666V30.8727C4.76981 25.5073 13.3195 21.2649 17.1848 19.8143M17.1848 46.6666C17.1848 39.9907 17.1848 25.9835 17.1848 19.8143M17.1848 46.6666V19.8143" stroke="#334D6E" stroke-width="0.422145" stroke-linecap="round"/>
<path fill-rule="evenodd" clip-rule="evenodd" d="M17.3085 5.30582C15.0001 3.8191 11.9266 5.43766 11.9266 8.14007L8.40473 7.08235C8.40473 2.25922 13.8796 -0.63884 18.0112 1.99727L37.6368 14.5192C41.4082 16.9255 41.3885 22.3329 37.5997 24.7129L17.974 37.041C13.8402 39.6378 8.40473 36.7361 8.40473 31.9324L11.9266 30.9804C11.9266 33.6718 14.9779 35.2925 17.2877 33.8279L35.7571 22.4878C37.8582 21.1555 37.8691 18.153 35.7778 16.806L17.3085 5.30582Z" fill="#109CF1" stroke="#109CF1" stroke-width="1.02392"/>
<path d="M52.9743 47.5327V18.0072H65.1741C65.4611 18.0072 65.8302 18.0209 66.2813 18.0482C66.7323 18.0619 67.1493 18.1029 67.532 18.1712C69.2406 18.431 70.6486 18.9982 71.7558 19.8731C72.8767 20.7479 73.7036 21.8551 74.2367 23.1947C74.7835 24.5206 75.0569 25.9969 75.0569 27.6235C75.0569 29.2365 74.7835 30.7127 74.2367 32.0523C73.69 33.3782 72.8562 34.4786 71.7353 35.3534C70.6281 36.2283 69.227 36.7955 67.532 37.0553C67.1493 37.1099 66.7255 37.1509 66.2608 37.1783C65.8097 37.2056 65.4474 37.2193 65.1741 37.2193H57.9157V47.5327H52.9743ZM57.9157 32.6059H64.969C65.2424 32.6059 65.55 32.5923 65.8917 32.5649C66.2334 32.5376 66.5478 32.4829 66.8349 32.4009C67.655 32.1959 68.2975 31.8336 68.7622 31.3142C69.2406 30.7948 69.5755 30.207 69.7669 29.5509C69.9719 28.8947 70.0745 28.2523 70.0745 27.6235C70.0745 26.9947 69.9719 26.3523 69.7669 25.6961C69.5755 25.0264 69.2406 24.4317 68.7622 23.9123C68.2975 23.3929 67.655 23.0306 66.8349 22.8256C66.5478 22.7436 66.2334 22.6958 65.8917 22.6821C65.55 22.6547 65.2424 22.6411 64.969 22.6411H57.9157V32.6059ZM84.7962 48.1478C83.1969 48.1478 81.8437 47.8471 80.7365 47.2457C79.6292 46.6305 78.7886 45.8172 78.2145 44.8057C77.654 43.7942 77.3738 42.6801 77.3738 41.4636C77.3738 40.3974 77.5515 39.4405 77.9069 38.593C78.2623 37.7319 78.8091 36.9937 79.5472 36.3786C80.2854 35.7499 81.2422 35.2373 82.4178 34.8408C83.3063 34.5538 84.3451 34.2941 85.5343 34.0617C86.7372 33.8293 88.0358 33.6175 89.4301 33.4261C90.838 33.221 92.3074 33.0023 93.8384 32.77L92.0751 33.7746C92.0887 32.2437 91.747 31.116 91.0499 30.3915C90.3527 29.6671 89.1772 29.3048 87.5232 29.3048C86.5254 29.3048 85.5617 29.5372 84.6322 30.0019C83.7027 30.4667 83.0534 31.2663 82.6843 32.4009L78.1735 30.9861C78.7202 29.1134 79.7591 27.6098 81.2901 26.4753C82.8347 25.3407 84.9124 24.7735 87.5232 24.7735C89.4916 24.7735 91.2207 25.0947 92.7107 25.7372C94.2143 26.3796 95.3283 27.4321 96.0528 28.8947C96.4492 29.6739 96.6884 30.4735 96.7704 31.2937C96.8525 32.1002 96.8935 32.9818 96.8935 33.9387V47.5327H92.5672V42.7348L93.2848 43.514C92.2869 45.1133 91.1182 46.2888 89.7786 47.0406C88.4527 47.7788 86.7919 48.1478 84.7962 48.1478ZM85.7804 44.2111C86.9013 44.2111 87.8581 44.0129 88.6509 43.6165C89.4437 43.2201 90.0725 42.7348 90.5373 42.1607C91.0157 41.5866 91.3369 41.0467 91.501 40.5409C91.7607 39.9121 91.9042 39.1945 91.9315 38.388C91.9726 37.5679 91.9931 36.9049 91.9931 36.3991L93.5103 36.8502C92.0204 37.0826 90.7423 37.2876 89.6761 37.4653C88.6099 37.643 87.6941 37.8139 86.9286 37.9779C86.1631 38.1283 85.4865 38.2992 84.8987 38.4905C84.3246 38.6956 83.8394 38.9348 83.443 39.2082C83.0466 39.4815 82.739 39.7959 82.5203 40.1513C82.3152 40.5067 82.2127 40.9236 82.2127 41.4021C82.2127 41.9488 82.3494 42.4341 82.6228 42.8578C82.8962 43.2679 83.2926 43.596 83.812 43.842C84.3451 44.0881 85.0013 44.2111 85.7804 44.2111ZM112.299 48.1478C110.057 48.1478 108.089 47.6626 106.394 46.6921C104.699 45.7215 103.373 44.3751 102.416 42.6528C101.473 40.9305 101.001 38.9484 101.001 36.7067C101.001 34.2872 101.466 32.189 102.396 30.412C103.325 28.6214 104.617 27.2339 106.271 26.2497C107.925 25.2656 109.838 24.7735 112.012 24.7735C114.308 24.7735 116.256 25.3134 117.855 26.3933C119.468 27.4595 120.664 28.9699 121.444 30.9246C122.223 32.8793 122.517 35.1826 122.325 37.8344H117.425V36.0301C117.411 33.6243 116.987 31.8678 116.154 30.7606C115.32 29.6534 114.008 29.0998 112.217 29.0998C110.194 29.0998 108.69 29.7286 107.706 30.9861C106.722 32.23 106.23 34.0549 106.23 36.4607C106.23 38.7024 106.722 40.4384 107.706 41.6686C108.69 42.8989 110.125 43.514 112.012 43.514C113.228 43.514 114.274 43.2474 115.149 42.7143C116.037 42.1675 116.721 41.3816 117.199 40.3564L122.079 41.8327C121.232 43.8284 119.919 45.3798 118.142 46.487C116.379 47.5942 114.431 48.1478 112.299 48.1478ZM104.671 37.8344V34.1027H119.906V37.8344H104.671ZM139.879 47.5327C138.416 47.8061 136.981 47.9223 135.573 47.8813C134.179 47.8539 132.928 47.6011 131.821 47.1226C130.714 46.6305 129.873 45.8582 129.299 44.8057C128.793 43.8489 128.527 42.8715 128.499 41.8737C128.472 40.8758 128.458 39.7481 128.458 38.4905V19.2374H133.379V38.2035C133.379 39.092 133.386 39.8711 133.4 40.5409C133.427 41.2107 133.571 41.7575 133.83 42.1812C134.323 43.0014 135.109 43.4593 136.188 43.555C137.268 43.6507 138.498 43.596 139.879 43.3909V47.5327ZM124.44 29.2638V25.3886H139.879V29.2638H124.44ZM150.833 48.1478C149.234 48.1478 147.88 47.8471 146.773 47.2457C145.666 46.6305 144.825 45.8172 144.251 44.8057C143.691 43.7942 143.411 42.6801 143.411 41.4636C143.411 40.3974 143.588 39.4405 143.944 38.593C144.299 37.7319 144.846 36.9937 145.584 36.3786C146.322 35.7499 147.279 35.2373 148.454 34.8408C149.343 34.5538 150.382 34.2941 151.571 34.0617C152.774 33.8293 154.073 33.6175 155.467 33.4261C156.875 33.221 158.344 33.0023 159.875 32.77L158.112 33.7746C158.125 32.2437 157.784 31.116 157.087 30.3915C156.389 29.6671 155.214 29.3048 153.56 29.3048C152.562 29.3048 151.598 29.5372 150.669 30.0019C149.739 30.4667 149.09 31.2663 148.721 32.4009L144.21 30.9861C144.757 29.1134 145.796 27.6098 147.327 26.4753C148.871 25.3407 150.949 24.7735 153.56 24.7735C155.528 24.7735 157.257 25.0947 158.747 25.7372C160.251 26.3796 161.365 27.4321 162.09 28.8947C162.486 29.6739 162.725 30.4735 162.807 31.2937C162.889 32.1002 162.93 32.9818 162.93 33.9387V47.5327H158.604V42.7348L159.322 43.514C158.324 45.1133 157.155 46.2888 155.815 47.0406C154.489 47.7788 152.829 48.1478 150.833 48.1478ZM151.817 44.2111C152.938 44.2111 153.895 44.0129 154.688 43.6165C155.48 43.2201 156.109 42.7348 156.574 42.1607C157.052 41.5866 157.374 41.0467 157.538 40.5409C157.797 39.9121 157.941 39.1945 157.968 38.388C158.009 37.5679 158.03 36.9049 158.03 36.3991L159.547 36.8502C158.057 37.0826 156.779 37.2876 155.713 37.4653C154.647 37.643 153.731 37.8139 152.965 37.9779C152.2 38.1283 151.523 38.2992 150.935 38.4905C150.361 38.6956 149.876 38.9348 149.48 39.2082C149.083 39.4815 148.776 39.7959 148.557 40.1513C148.352 40.5067 148.249 40.9236 148.249 41.4021C148.249 41.9488 148.386 42.4341 148.66 42.8578C148.933 43.2679 149.329 43.596 149.849 43.842C150.382 44.0881 151.038 44.2111 151.817 44.2111Z" fill="#334D6E"/>
</svg>
